<svg xmlns="http://www.w3.org/2000/svg" viewBox="0 0 116 108" width="116" height="108" shape-rendering="crispEdges" image-rendering="pixelated" role="img" aria-label="E-2 Hawkeye"><rect x="44" y="25" width="2" height="1" fill="#050a12"/><rect x="46" y="25" width="3" height="1" fill="#ff3b30"/><rect x="49" y="25" width="2" height="1" fill="#050a12"/><rect x="43" y="26" width="1" height="1" fill="#050a12"/><rect x="44" y="26" width="2" height="1" fill="#59636f"/><rect x="46" y="26" width="3" height="1" fill="#ff3b30"/><rect x="49" y="26" width="2" height="1" fill="#59636f"/><rect x="51" y="26" width="1" height="1" fill="#050a12"/><rect x="43" y="27" width="1" height="1" fill="#050a12"/><rect x="44" y="27" width="2" height="1" fill="#59636f"/><rect x="46" y="27" width="3" height="1" fill="#ff3b30"/><rect x="49" y="27" width="2" height="1" fill="#59636f"/><rect x="51" y="27" width="1" height="1" fill="#050a12"/><rect x="43" y="28" width="1" height="1" fill="#050a12"/><rect x="44" y="28" width="7" height="1" fill="#59636f"/><rect x="51" y="28" width="1" height="1" fill="#050a12"/><rect x="43" y="29" width="1" height="1" fill="#050a12"/><rect x="44" y="29" width="1" height="1" fill="#68727f"/><rect x="45" y="29" width="7" height="1" fill="#59636f"/><rect x="52" y="29" width="1" height="1" fill="#050a12"/><rect x="43" y="30" width="1" height="1" fill="#050a12"/><rect x="44" y="30" width="1" height="1" fill="#3a424c"/><rect x="45" y="30" width="7" height="1" fill="#59636f"/><rect x="52" y="30" width="1" height="1" fill="#050a12"/><rect x="44" y="31" width="1" height="1" fill="#050a12"/><rect x="45" y="31" width="7" height="1" fill="#59636f"/><rect x="52" y="31" width="1" height="1" fill="#050a12"/><rect x="44" y="32" width="1" height="1" fill="#050a12"/><rect x="45" y="32" width="8" height="1" fill="#59636f"/><rect x="53" y="32" width="1" height="1" fill="#050a12"/><rect x="44" y="33" width="1" height="1" fill="#050a12"/><rect x="45" y="33" width="8" height="1" fill="#59636f"/><rect x="53" y="33" width="1" height="1" fill="#050a12"/><rect x="44" y="34" width="1" height="1" fill="#050a12"/><rect x="45" y="34" width="1" height="1" fill="#68727f"/><rect x="46" y="34" width="7" height="1" fill="#59636f"/><rect x="53" y="34" width="1" height="1" fill="#050a12"/><rect x="44" y="35" width="1" height="1" fill="#050a12"/><rect x="45" y="35" width="9" height="1" fill="#59636f"/><rect x="54" y="35" width="1" height="1" fill="#050a12"/><rect x="45" y="36" width="1" height="1" fill="#050a12"/><rect x="46" y="36" width="8" height="1" fill="#59636f"/><rect x="54" y="36" width="1" height="1" fill="#050a12"/><rect x="45" y="37" width="1" height="1" fill="#68727f"/><rect x="46" y="37" width="1" height="1" fill="#59636f"/><rect x="47" y="37" width="1" height="1" fill="#68727f"/><rect x="48" y="37" width="6" height="1" fill="#59636f"/><rect x="54" y="37" width="4" height="1" fill="#050a12"/><rect x="44" y="38" width="1" height="1" fill="#68727f"/><rect x="45" y="38" width="1" height="1" fill="#050a12"/><rect x="46" y="38" width="1" height="1" fill="#68727f"/><rect x="47" y="38" width="1" height="1" fill="#59636f"/><rect x="48" y="38" width="1" height="1" fill="#68727f"/><rect x="49" y="38" width="5" height="1" fill="#59636f"/><rect x="54" y="38" width="4" height="1" fill="#4a535e"/><rect x="58" y="38" width="2" height="1" fill="#050a12"/><rect x="80" y="38" width="2" height="1" fill="#050a12"/><rect x="43" y="39" width="1" height="1" fill="#68727f"/><rect x="45" y="39" width="1" height="1" fill="#68727f"/><rect x="46" y="39" width="1" height="1" fill="#68727f"/><rect x="47" y="39" width="1" height="1" fill="#68727f"/><rect x="48" y="39" width="1" height="1" fill="#4a535e"/><rect x="49" y="39" width="1" height="1" fill="#68727f"/><rect x="50" y="39" width="8" height="1" fill="#4a535e"/><rect x="58" y="39" width="2" height="1" fill="#2b313b"/><rect x="60" y="39" width="1" height="1" fill="#050a12"/><rect x="79" y="39" width="1" height="1" fill="#050a12"/><rect x="80" y="39" width="2" height="1" fill="#68727f"/><rect x="82" y="39" width="1" height="1" fill="#050a12"/><rect x="42" y="40" width="1" height="1" fill="#68727f"/><rect x="44" y="40" width="1" height="1" fill="#68727f"/><rect x="45" y="40" width="1" height="1" fill="#4a535e"/><rect x="46" y="40" width="1" height="1" fill="#050a12"/><rect x="47" y="40" width="1" height="1" fill="#59636f"/><rect x="48" y="40" width="1" height="1" fill="#68727f"/><rect x="49" y="40" width="1" height="1" fill="#59636f"/><rect x="50" y="40" width="1" height="1" fill="#68727f"/><rect x="51" y="40" width="4" height="1" fill="#59636f"/><rect x="55" y="40" width="3" height="1" fill="#3a424c"/><rect x="58" y="40" width="2" height="1" fill="#2b313b"/><rect x="60" y="40" width="1" height="1" fill="#050a12"/><rect x="78" y="40" width="1" height="1" fill="#050a12"/><rect x="79" y="40" width="1" height="1" fill="#68727f"/><rect x="80" y="40" width="2" height="1" fill="#4a535e"/><rect x="82" y="40" width="1" height="1" fill="#050a12"/><rect x="42" y="41" width="9" height="1" fill="#050a12"/><rect x="51" y="41" width="5" height="1" fill="#59636f"/><rect x="56" y="41" width="1" height="1" fill="#212630"/><rect x="57" y="41" width="2" height="1" fill="#2b313b"/><rect x="59" y="41" width="1" height="1" fill="#050a12"/><rect x="77" y="41" width="1" height="1" fill="#050a12"/><rect x="78" y="41" width="1" height="1" fill="#68727f"/><rect x="79" y="41" width="2" height="1" fill="#4a535e"/><rect x="81" y="41" width="1" height="1" fill="#050a12"/><rect x="42" y="42" width="1" height="1" fill="#68727f"/><rect x="44" y="42" width="1" height="1" fill="#68727f"/><rect x="45" y="42" width="2" height="1" fill="#050a12"/><rect x="47" y="42" width="1" height="1" fill="#59636f"/><rect x="48" y="42" width="1" height="1" fill="#68727f"/><rect x="49" y="42" width="1" height="1" fill="#59636f"/><rect x="50" y="42" width="1" height="1" fill="#68727f"/><rect x="51" y="42" width="5" height="1" fill="#59636f"/><rect x="56" y="42" width="3" height="1" fill="#050a12"/><rect x="77" y="42" width="1" height="1" fill="#050a12"/><rect x="78" y="42" width="1" height="1" fill="#59636f"/><rect x="79" y="42" width="2" height="1" fill="#4a535e"/><rect x="81" y="42" width="1" height="1" fill="#050a12"/><rect x="43" y="43" width="1" height="1" fill="#68727f"/><rect x="45" y="43" width="1" height="1" fill="#68727f"/><rect x="46" y="43" width="1" height="1" fill="#050a12"/><rect x="47" y="43" width="1" height="1" fill="#68727f"/><rect x="48" y="43" width="1" height="1" fill="#59636f"/><rect x="49" y="43" width="1" height="1" fill="#68727f"/><rect x="50" y="43" width="6" height="1" fill="#59636f"/><rect x="56" y="43" width="6" height="1" fill="#050a12"/><rect x="76" y="43" width="1" height="1" fill="#050a12"/><rect x="77" y="43" width="1" height="1" fill="#68727f"/><rect x="78" y="43" width="3" height="1" fill="#4a535e"/><rect x="81" y="43" width="1" height="1" fill="#050a12"/><rect x="44" y="44" width="1" height="1" fill="#68727f"/><rect x="46" y="44" width="1" height="1" fill="#68727f"/><rect x="47" y="44" width="1" height="1" fill="#68727f"/><rect x="48" y="44" width="1" height="1" fill="#68727f"/><rect x="49" y="44" width="2" height="1" fill="#59636f"/><rect x="51" y="44" width="11" height="1" fill="#68727f"/><rect x="62" y="44" width="3" height="1" fill="#050a12"/><rect x="76" y="44" width="1" height="1" fill="#050a12"/><rect x="77" y="44" width="4" height="1" fill="#4a535e"/><rect x="81" y="44" width="1" height="1" fill="#050a12"/><rect x="45" y="45" width="1" height="1" fill="#68727f"/><rect x="46" y="45" width="1" height="1" fill="#050a12"/><rect x="47" y="45" width="1" height="1" fill="#68727f"/><rect x="48" y="45" width="1" height="1" fill="#59636f"/><rect x="49" y="45" width="15" height="1" fill="#68727f"/><rect x="64" y="45" width="1" height="1" fill="#4a535e"/><rect x="65" y="45" width="1" height="1" fill="#050a12"/><rect x="75" y="45" width="1" height="1" fill="#050a12"/><rect x="76" y="45" width="1" height="1" fill="#68727f"/><rect x="77" y="45" width="3" height="1" fill="#4a535e"/><rect x="80" y="45" width="1" height="1" fill="#050a12"/><rect x="47" y="46" width="1" height="1" fill="#050a12"/><rect x="48" y="46" width="18" height="1" fill="#68727f"/><rect x="66" y="46" width="1" height="1" fill="#050a12"/><rect x="76" y="46" width="1" height="1" fill="#050a12"/><rect x="77" y="46" width="3" height="1" fill="#68727f"/><rect x="80" y="46" width="1" height="1" fill="#050a12"/><rect x="46" y="47" width="1" height="1" fill="#050a12"/><rect x="47" y="47" width="20" height="1" fill="#68727f"/><rect x="67" y="47" width="1" height="1" fill="#050a12"/><rect x="76" y="47" width="1" height="1" fill="#050a12"/><rect x="77" y="47" width="4" height="1" fill="#68727f"/><rect x="81" y="47" width="3" height="1" fill="#050a12"/><rect x="46" y="48" width="1" height="1" fill="#050a12"/><rect x="47" y="48" width="20" height="1" fill="#68727f"/><rect x="67" y="48" width="1" height="1" fill="#59636f"/><rect x="68" y="48" width="1" height="1" fill="#050a12"/><rect x="76" y="48" width="1" height="1" fill="#050a12"/><rect x="77" y="48" width="4" height="1" fill="#68727f"/><rect x="81" y="48" width="1" height="1" fill="#050a12"/><rect x="82" y="48" width="2" height="1" fill="#68727f"/><rect x="84" y="48" width="1" height="1" fill="#050a12"/><rect x="45" y="49" width="1" height="1" fill="#050a12"/><rect x="46" y="49" width="22" height="1" fill="#68727f"/><rect x="68" y="49" width="1" height="1" fill="#050a12"/><rect x="76" y="49" width="1" height="1" fill="#050a12"/><rect x="77" y="49" width="5" height="1" fill="#68727f"/><rect x="82" y="49" width="2" height="1" fill="#4a535e"/><rect x="84" y="49" width="1" height="1" fill="#050a12"/><rect x="45" y="50" width="1" height="1" fill="#050a12"/><rect x="46" y="50" width="10" height="1" fill="#68727f"/><rect x="56" y="50" width="3" height="1" fill="#7a8694"/><rect x="59" y="50" width="9" height="1" fill="#68727f"/><rect x="68" y="50" width="1" height="1" fill="#050a12"/><rect x="77" y="50" width="1" height="1" fill="#050a12"/><rect x="78" y="50" width="3" height="1" fill="#68727f"/><rect x="81" y="50" width="3" height="1" fill="#4a535e"/><rect x="84" y="50" width="1" height="1" fill="#050a12"/><rect x="45" y="51" width="1" height="1" fill="#050a12"/><rect x="46" y="51" width="10" height="1" fill="#68727f"/><rect x="56" y="51" width="1" height="1" fill="#7a8694"/><rect x="57" y="51" width="1" height="1" fill="#7a8694"/><rect x="58" y="51" width="1" height="1" fill="#7a8694"/><rect x="59" y="51" width="9" height="1" fill="#68727f"/><rect x="68" y="51" width="1" height="1" fill="#050a12"/><rect x="77" y="51" width="1" height="1" fill="#050a12"/><rect x="78" y="51" width="3" height="1" fill="#68727f"/><rect x="81" y="51" width="3" height="1" fill="#4a535e"/><rect x="84" y="51" width="1" height="1" fill="#050a12"/><rect x="45" y="52" width="1" height="1" fill="#050a12"/><rect x="46" y="52" width="10" height="1" fill="#68727f"/><rect x="56" y="52" width="3" height="1" fill="#7a8694"/><rect x="59" y="52" width="9" height="1" fill="#68727f"/><rect x="68" y="52" width="10" height="1" fill="#050a12"/><rect x="78" y="52" width="2" height="1" fill="#68727f"/><rect x="80" y="52" width="3" height="1" fill="#4a535e"/><rect x="83" y="52" width="2" height="1" fill="#050a12"/><rect x="46" y="53" width="1" height="1" fill="#050a12"/><rect x="47" y="53" width="20" height="1" fill="#68727f"/><rect x="67" y="53" width="1" height="1" fill="#4a535e"/><rect x="68" y="53" width="1" height="1" fill="#3a424c"/><rect x="69" y="53" width="4" height="1" fill="#59636f"/><rect x="73" y="53" width="4" height="1" fill="#4a535e"/><rect x="77" y="53" width="2" height="1" fill="#050a12"/><rect x="79" y="53" width="3" height="1" fill="#68727f"/><rect x="82" y="53" width="2" height="1" fill="#050a12"/><rect x="84" y="53" width="1" height="1" fill="#68727f"/><rect x="85" y="53" width="1" height="1" fill="#050a12"/><rect x="41" y="54" width="6" height="1" fill="#050a12"/><rect x="47" y="54" width="19" height="1" fill="#68727f"/><rect x="66" y="54" width="1" height="1" fill="#59636f"/><rect x="67" y="54" width="1" height="1" fill="#4a535e"/><rect x="68" y="54" width="1" height="1" fill="#3a424c"/><rect x="69" y="54" width="4" height="1" fill="#59636f"/><rect x="73" y="54" width="8" height="1" fill="#4a535e"/><rect x="81" y="54" width="2" height="1" fill="#68727f"/><rect x="83" y="54" width="1" height="1" fill="#59636f"/><rect x="84" y="54" width="1" height="1" fill="#4a535e"/><rect x="85" y="54" width="1" height="1" fill="#050a12"/><rect x="36" y="55" width="5" height="1" fill="#050a12"/><rect x="41" y="55" width="6" height="1" fill="#59636f"/><rect x="47" y="55" width="1" height="1" fill="#3a424c"/><rect x="48" y="55" width="17" height="1" fill="#68727f"/><rect x="65" y="55" width="2" height="1" fill="#4a535e"/><rect x="67" y="55" width="1" height="1" fill="#3a424c"/><rect x="68" y="55" width="4" height="1" fill="#59636f"/><rect x="72" y="55" width="7" height="1" fill="#4a535e"/><rect x="79" y="55" width="2" height="1" fill="#3a424c"/><rect x="81" y="55" width="2" height="1" fill="#68727f"/><rect x="83" y="55" width="2" height="1" fill="#4a535e"/><rect x="85" y="55" width="1" height="1" fill="#050a12"/><rect x="32" y="56" width="4" height="1" fill="#050a12"/><rect x="36" y="56" width="12" height="1" fill="#59636f"/><rect x="48" y="56" width="1" height="1" fill="#3a424c"/><rect x="49" y="56" width="2" height="1" fill="#68727f"/><rect x="51" y="56" width="1" height="1" fill="#59636f"/><rect x="52" y="56" width="11" height="1" fill="#68727f"/><rect x="63" y="56" width="3" height="1" fill="#4a535e"/><rect x="66" y="56" width="1" height="1" fill="#2b313b"/><rect x="67" y="56" width="10" height="1" fill="#4a535e"/><rect x="77" y="56" width="3" height="1" fill="#3a424c"/><rect x="80" y="56" width="2" height="1" fill="#68727f"/><rect x="82" y="56" width="3" height="1" fill="#4a535e"/><rect x="85" y="56" width="1" height="1" fill="#050a12"/><rect x="31" y="57" width="1" height="1" fill="#050a12"/><rect x="32" y="57" width="5" height="1" fill="#14293b"/><rect x="37" y="57" width="12" height="1" fill="#59636f"/><rect x="49" y="57" width="1" height="1" fill="#3a424c"/><rect x="50" y="57" width="1" height="1" fill="#68727f"/><rect x="51" y="57" width="5" height="1" fill="#59636f"/><rect x="56" y="57" width="3" height="1" fill="#68727f"/><rect x="59" y="57" width="1" height="1" fill="#59636f"/><rect x="60" y="57" width="5" height="1" fill="#4a535e"/><rect x="65" y="57" width="1" height="1" fill="#2b313b"/><rect x="66" y="57" width="7" height="1" fill="#4a535e"/><rect x="73" y="57" width="7" height="1" fill="#3a424c"/><rect x="80" y="57" width="1" height="1" fill="#68727f"/><rect x="81" y="57" width="4" height="1" fill="#4a535e"/><rect x="85" y="57" width="2" height="1" fill="#050a12"/><rect x="30" y="58" width="1" height="1" fill="#050a12"/><rect x="31" y="58" width="1" height="1" fill="#68727f"/><rect x="32" y="58" width="4" height="1" fill="#14293b"/><rect x="36" y="58" width="9" height="1" fill="#59636f"/><rect x="45" y="58" width="5" height="1" fill="#4a535e"/><rect x="50" y="58" width="2" height="1" fill="#3a424c"/><rect x="52" y="58" width="4" height="1" fill="#59636f"/><rect x="56" y="58" width="7" height="1" fill="#4a535e"/><rect x="63" y="58" width="2" height="1" fill="#2b313b"/><rect x="65" y="58" width="14" height="1" fill="#3a424c"/><rect x="79" y="58" width="1" height="1" fill="#050a12"/><rect x="80" y="58" width="4" height="1" fill="#68727f"/><rect x="84" y="58" width="1" height="1" fill="#050a12"/><rect x="85" y="58" width="2" height="1" fill="#68727f"/><rect x="87" y="58" width="1" height="1" fill="#050a12"/><rect x="29" y="59" width="1" height="1" fill="#050a12"/><rect x="30" y="59" width="2" height="1" fill="#68727f"/><rect x="32" y="59" width="6" height="1" fill="#59636f"/><rect x="38" y="59" width="13" height="1" fill="#4a535e"/><rect x="51" y="59" width="1" height="1" fill="#59636f"/><rect x="52" y="59" width="5" height="1" fill="#3a424c"/><rect x="57" y="59" width="2" height="1" fill="#4a535e"/><rect x="59" y="59" width="2" height="1" fill="#3a424c"/><rect x="61" y="59" width="2" height="1" fill="#212630"/><rect x="63" y="59" width="13" height="1" fill="#3a424c"/><rect x="76" y="59" width="4" height="1" fill="#050a12"/><rect x="80" y="59" width="4" height="1" fill="#68727f"/><rect x="84" y="59" width="1" height="1" fill="#050a12"/><rect x="85" y="59" width="2" height="1" fill="#4a535e"/><rect x="87" y="59" width="1" height="1" fill="#050a12"/><rect x="29" y="60" width="1" height="1" fill="#050a12"/><rect x="30" y="60" width="3" height="1" fill="#59636f"/><rect x="33" y="60" width="15" height="1" fill="#4a535e"/><rect x="48" y="60" width="3" height="1" fill="#3a424c"/><rect x="51" y="60" width="1" height="1" fill="#68727f"/><rect x="52" y="60" width="5" height="1" fill="#59636f"/><rect x="57" y="60" width="2" height="1" fill="#3a424c"/><rect x="59" y="60" width="2" height="1" fill="#59636f"/><rect x="61" y="60" width="1" height="1" fill="#212630"/><rect x="62" y="60" width="10" height="1" fill="#3a424c"/><rect x="72" y="60" width="4" height="1" fill="#050a12"/><rect x="80" y="60" width="1" height="1" fill="#050a12"/><rect x="81" y="60" width="4" height="1" fill="#68727f"/><rect x="85" y="60" width="2" height="1" fill="#4a535e"/><rect x="87" y="60" width="1" height="1" fill="#050a12"/><rect x="29" y="61" width="1" height="1" fill="#050a12"/><rect x="30" y="61" width="8" height="1" fill="#4a535e"/><rect x="38" y="61" width="13" height="1" fill="#3a424c"/><rect x="51" y="61" width="10" height="1" fill="#59636f"/><rect x="61" y="61" width="1" height="1" fill="#3a424c"/><rect x="62" y="61" width="1" height="1" fill="#212630"/><rect x="63" y="61" width="3" height="1" fill="#3a424c"/><rect x="66" y="61" width="6" height="1" fill="#050a12"/><rect x="80" y="61" width="1" height="1" fill="#050a12"/><rect x="81" y="61" width="3" height="1" fill="#68727f"/><rect x="84" y="61" width="3" height="1" fill="#4a535e"/><rect x="87" y="61" width="1" height="1" fill="#050a12"/><rect x="30" y="62" width="1" height="1" fill="#050a12"/><rect x="31" y="62" width="20" height="1" fill="#3a424c"/><rect x="51" y="62" width="1" height="1" fill="#212630"/><rect x="52" y="62" width="10" height="1" fill="#59636f"/><rect x="62" y="62" width="4" height="1" fill="#050a12"/><rect x="80" y="62" width="1" height="1" fill="#050a12"/><rect x="81" y="62" width="2" height="1" fill="#68727f"/><rect x="83" y="62" width="3" height="1" fill="#4a535e"/><rect x="86" y="62" width="1" height="1" fill="#050a12"/><rect x="31" y="63" width="5" height="1" fill="#050a12"/><rect x="36" y="63" width="11" height="1" fill="#3a424c"/><rect x="47" y="63" width="5" height="1" fill="#050a12"/><rect x="52" y="63" width="10" height="1" fill="#59636f"/><rect x="62" y="63" width="1" height="1" fill="#050a12"/><rect x="80" y="63" width="1" height="1" fill="#050a12"/><rect x="81" y="63" width="2" height="1" fill="#68727f"/><rect x="83" y="63" width="3" height="1" fill="#4a535e"/><rect x="86" y="63" width="1" height="1" fill="#050a12"/><rect x="36" y="64" width="11" height="1" fill="#050a12"/><rect x="52" y="64" width="1" height="1" fill="#050a12"/><rect x="53" y="64" width="9" height="1" fill="#59636f"/><rect x="62" y="64" width="1" height="1" fill="#050a12"/><rect x="81" y="64" width="1" height="1" fill="#050a12"/><rect x="82" y="64" width="4" height="1" fill="#4a535e"/><rect x="86" y="64" width="1" height="1" fill="#050a12"/><rect x="52" y="65" width="1" height="1" fill="#050a12"/><rect x="53" y="65" width="9" height="1" fill="#59636f"/><rect x="62" y="65" width="1" height="1" fill="#3a424c"/><rect x="63" y="65" width="1" height="1" fill="#050a12"/><rect x="81" y="65" width="1" height="1" fill="#050a12"/><rect x="82" y="65" width="1" height="1" fill="#68727f"/><rect x="83" y="65" width="1" height="1" fill="#59636f"/><rect x="84" y="65" width="2" height="1" fill="#4a535e"/><rect x="86" y="65" width="1" height="1" fill="#050a12"/><rect x="52" y="66" width="1" height="1" fill="#050a12"/><rect x="53" y="66" width="10" height="1" fill="#59636f"/><rect x="63" y="66" width="1" height="1" fill="#050a12"/><rect x="82" y="66" width="4" height="1" fill="#050a12"/><rect x="53" y="67" width="1" height="1" fill="#050a12"/><rect x="54" y="67" width="9" height="1" fill="#59636f"/><rect x="63" y="67" width="1" height="1" fill="#050a12"/><rect x="65" y="67" width="2" height="1" fill="#050a12"/><rect x="52" y="68" width="1" height="1" fill="#68727f"/><rect x="53" y="68" width="1" height="1" fill="#050a12"/><rect x="54" y="68" width="1" height="1" fill="#68727f"/><rect x="55" y="68" width="1" height="1" fill="#59636f"/><rect x="56" y="68" width="1" height="1" fill="#68727f"/><rect x="57" y="68" width="6" height="1" fill="#59636f"/><rect x="63" y="68" width="2" height="1" fill="#050a12"/><rect x="65" y="68" width="1" height="1" fill="#4a535e"/><rect x="66" y="68" width="1" height="1" fill="#2b313b"/><rect x="67" y="68" width="1" height="1" fill="#050a12"/><rect x="51" y="69" width="1" height="1" fill="#68727f"/><rect x="53" y="69" width="1" height="1" fill="#68727f"/><rect x="54" y="69" width="1" height="1" fill="#050a12"/><rect x="55" y="69" width="1" height="1" fill="#68727f"/><rect x="56" y="69" width="1" height="1" fill="#59636f"/><rect x="57" y="69" width="1" height="1" fill="#68727f"/><rect x="58" y="69" width="9" height="1" fill="#4a535e"/><rect x="67" y="69" width="1" height="1" fill="#2b313b"/><rect x="68" y="69" width="1" height="1" fill="#050a12"/><rect x="50" y="70" width="1" height="1" fill="#68727f"/><rect x="52" y="70" width="1" height="1" fill="#68727f"/><rect x="54" y="70" width="1" height="1" fill="#68727f"/><rect x="55" y="70" width="1" height="1" fill="#59636f"/><rect x="56" y="70" width="1" height="1" fill="#68727f"/><rect x="57" y="70" width="1" height="1" fill="#59636f"/><rect x="58" y="70" width="1" height="1" fill="#68727f"/><rect x="59" y="70" width="5" height="1" fill="#59636f"/><rect x="64" y="70" width="3" height="1" fill="#3a424c"/><rect x="67" y="70" width="1" height="1" fill="#2b313b"/><rect x="68" y="70" width="1" height="1" fill="#050a12"/><rect x="51" y="71" width="1" height="1" fill="#68727f"/><rect x="53" y="71" width="1" height="1" fill="#68727f"/><rect x="54" y="71" width="1" height="1" fill="#050a12"/><rect x="55" y="71" width="1" height="1" fill="#68727f"/><rect x="56" y="71" width="1" height="1" fill="#59636f"/><rect x="57" y="71" width="1" height="1" fill="#68727f"/><rect x="58" y="71" width="6" height="1" fill="#59636f"/><rect x="64" y="71" width="1" height="1" fill="#212630"/><rect x="65" y="71" width="3" height="1" fill="#2b313b"/><rect x="68" y="71" width="1" height="1" fill="#050a12"/><rect x="50" y="72" width="9" height="1" fill="#050a12"/><rect x="59" y="72" width="5" height="1" fill="#59636f"/><rect x="64" y="72" width="1" height="1" fill="#212630"/><rect x="65" y="72" width="2" height="1" fill="#2b313b"/><rect x="67" y="72" width="1" height="1" fill="#050a12"/><rect x="51" y="73" width="1" height="1" fill="#68727f"/><rect x="53" y="73" width="1" height="1" fill="#68727f"/><rect x="54" y="73" width="1" height="1" fill="#050a12"/><rect x="55" y="73" width="1" height="1" fill="#68727f"/><rect x="56" y="73" width="1" height="1" fill="#59636f"/><rect x="57" y="73" width="1" height="1" fill="#68727f"/><rect x="58" y="73" width="6" height="1" fill="#59636f"/><rect x="64" y="73" width="3" height="1" fill="#050a12"/><rect x="50" y="74" width="1" height="1" fill="#68727f"/><rect x="52" y="74" width="1" height="1" fill="#68727f"/><rect x="54" y="74" width="1" height="1" fill="#68727f"/><rect x="55" y="74" width="1" height="1" fill="#050a12"/><rect x="56" y="74" width="1" height="1" fill="#68727f"/><rect x="57" y="74" width="1" height="1" fill="#59636f"/><rect x="58" y="74" width="1" height="1" fill="#68727f"/><rect x="59" y="74" width="6" height="1" fill="#59636f"/><rect x="65" y="74" width="1" height="1" fill="#050a12"/><rect x="51" y="75" width="1" height="1" fill="#68727f"/><rect x="53" y="75" width="1" height="1" fill="#68727f"/><rect x="55" y="75" width="1" height="1" fill="#68727f"/><rect x="56" y="75" width="1" height="1" fill="#050a12"/><rect x="57" y="75" width="1" height="1" fill="#68727f"/><rect x="58" y="75" width="7" height="1" fill="#59636f"/><rect x="65" y="75" width="1" height="1" fill="#050a12"/><rect x="52" y="76" width="1" height="1" fill="#68727f"/><rect x="54" y="76" width="1" height="1" fill="#68727f"/><rect x="56" y="76" width="1" height="1" fill="#68727f"/><rect x="57" y="76" width="1" height="1" fill="#68727f"/><rect x="58" y="76" width="7" height="1" fill="#59636f"/><rect x="65" y="76" width="1" height="1" fill="#050a12"/><rect x="57" y="77" width="1" height="1" fill="#050a12"/><rect x="58" y="77" width="7" height="1" fill="#59636f"/><rect x="65" y="77" width="1" height="1" fill="#050a12"/><rect x="57" y="78" width="1" height="1" fill="#050a12"/><rect x="58" y="78" width="8" height="1" fill="#59636f"/><rect x="66" y="78" width="1" height="1" fill="#050a12"/><rect x="57" y="79" width="1" height="1" fill="#050a12"/><rect x="58" y="79" width="8" height="1" fill="#59636f"/><rect x="66" y="79" width="1" height="1" fill="#050a12"/><rect x="58" y="80" width="1" height="1" fill="#050a12"/><rect x="59" y="80" width="7" height="1" fill="#59636f"/><rect x="66" y="80" width="1" height="1" fill="#050a12"/><rect x="58" y="81" width="1" height="1" fill="#050a12"/><rect x="59" y="81" width="3" height="1" fill="#59636f"/><rect x="62" y="81" width="3" height="1" fill="#33dd66"/><rect x="65" y="81" width="1" height="1" fill="#59636f"/><rect x="66" y="81" width="1" height="1" fill="#050a12"/><rect x="58" y="82" width="1" height="1" fill="#050a12"/><rect x="59" y="82" width="3" height="1" fill="#59636f"/><rect x="62" y="82" width="1" height="1" fill="#33dd66"/><rect x="63" y="82" width="1" height="1" fill="#33dd66"/><rect x="64" y="82" width="1" height="1" fill="#33dd66"/><rect x="65" y="82" width="1" height="1" fill="#3a424c"/><rect x="66" y="82" width="1" height="1" fill="#050a12"/><rect x="59" y="83" width="3" height="1" fill="#050a12"/><rect x="62" y="83" width="3" height="1" fill="#33dd66"/><rect x="65" y="83" width="1" height="1" fill="#050a12"/></svg>
