<svg xmlns="http://www.w3.org/2000/svg" viewBox="0 0 184 92" width="184" height="92" shape-rendering="crispEdges" role="img" aria-label="Satelite de reconocimiento"><rect x="12" y="4" width="4" height="4" fill="#050a12"/><rect x="12" y="8" width="4" height="4" fill="#050a12"/><rect x="12" y="12" width="4" height="4" fill="#050a12"/><rect x="16" y="4" width="4" height="4" fill="#050a12"/><rect x="20" y="4" width="4" height="4" fill="#050a12"/><rect x="24" y="4" width="4" height="4" fill="#050a12"/><rect x="28" y="4" width="4" height="4" fill="#050a12"/><rect x="32" y="4" width="4" height="4" fill="#050a12"/><rect x="36" y="4" width="4" height="4" fill="#050a12"/><rect x="40" y="4" width="4" height="4" fill="#050a12"/><rect x="44" y="4" width="4" height="4" fill="#050a12"/><rect x="48" y="4" width="4" height="4" fill="#050a12"/><rect x="52" y="4" width="4" height="4" fill="#050a12"/><rect x="56" y="4" width="4" height="4" fill="#050a12"/><rect x="60" y="4" width="4" height="4" fill="#050a12"/><rect x="60" y="8" width="4" height="4" fill="#050a12"/><rect x="60" y="12" width="4" height="4" fill="#050a12"/><rect x="72" y="4" width="4" height="4" fill="#050a12"/><rect x="72" y="8" width="4" height="4" fill="#050a12"/><rect x="72" y="12" width="4" height="4" fill="#050a12"/><rect x="76" y="4" width="4" height="4" fill="#050a12"/><rect x="80" y="4" width="4" height="4" fill="#050a12"/><rect x="84" y="4" width="4" height="4" fill="#050a12"/><rect x="88" y="4" width="4" height="4" fill="#050a12"/><rect x="92" y="4" width="4" height="4" fill="#050a12"/><rect x="96" y="4" width="4" height="4" fill="#050a12"/><rect x="100" y="4" width="4" height="4" fill="#050a12"/><rect x="100" y="8" width="4" height="4" fill="#050a12"/><rect x="100" y="12" width="4" height="4" fill="#050a12"/><rect x="112" y="4" width="4" height="4" fill="#050a12"/><rect x="112" y="8" width="4" height="4" fill="#050a12"/><rect x="112" y="12" width="4" height="4" fill="#050a12"/><rect x="116" y="4" width="4" height="4" fill="#050a12"/><rect x="120" y="4" width="4" height="4" fill="#050a12"/><rect x="124" y="4" width="4" height="4" fill="#050a12"/><rect x="128" y="4" width="4" height="4" fill="#050a12"/><rect x="132" y="4" width="4" height="4" fill="#050a12"/><rect x="136" y="4" width="4" height="4" fill="#050a12"/><rect x="140" y="4" width="4" height="4" fill="#050a12"/><rect x="144" y="4" width="4" height="4" fill="#050a12"/><rect x="148" y="4" width="4" height="4" fill="#050a12"/><rect x="152" y="4" width="4" height="4" fill="#050a12"/><rect x="156" y="4" width="4" height="4" fill="#050a12"/><rect x="160" y="4" width="4" height="4" fill="#050a12"/><rect x="160" y="8" width="4" height="4" fill="#050a12"/><rect x="160" y="12" width="4" height="4" fill="#050a12"/><rect x="12" y="16" width="4" height="4" fill="#050a12"/><rect x="60" y="16" width="4" height="4" fill="#050a12"/><rect x="112" y="16" width="4" height="4" fill="#050a12"/><rect x="160" y="16" width="4" height="4" fill="#050a12"/><rect x="12" y="20" width="4" height="4" fill="#050a12"/><rect x="60" y="20" width="4" height="4" fill="#050a12"/><rect x="68" y="12" width="4" height="4" fill="#050a12"/><rect x="68" y="16" width="4" height="4" fill="#050a12"/><rect x="68" y="20" width="4" height="4" fill="#050a12"/><rect x="72" y="20" width="4" height="4" fill="#050a12"/><rect x="100" y="20" width="4" height="4" fill="#050a12"/><rect x="104" y="12" width="4" height="4" fill="#050a12"/><rect x="104" y="16" width="4" height="4" fill="#050a12"/><rect x="104" y="20" width="4" height="4" fill="#050a12"/><rect x="112" y="20" width="4" height="4" fill="#050a12"/><rect x="160" y="20" width="4" height="4" fill="#050a12"/><rect x="12" y="24" width="4" height="4" fill="#050a12"/><rect x="60" y="24" width="4" height="4" fill="#050a12"/><rect x="72" y="24" width="4" height="4" fill="#050a12"/><rect x="100" y="24" width="4" height="4" fill="#050a12"/><rect x="112" y="24" width="4" height="4" fill="#050a12"/><rect x="160" y="24" width="4" height="4" fill="#050a12"/><rect x="12" y="28" width="4" height="4" fill="#050a12"/><rect x="60" y="28" width="4" height="4" fill="#050a12"/><rect x="112" y="28" width="4" height="4" fill="#050a12"/><rect x="160" y="28" width="4" height="4" fill="#050a12"/><rect x="68" y="24" width="4" height="4" fill="#050a12"/><rect x="68" y="28" width="4" height="4" fill="#050a12"/><rect x="104" y="24" width="4" height="4" fill="#050a12"/><rect x="104" y="28" width="4" height="4" fill="#050a12"/><rect x="8" y="28" width="4" height="4" fill="#050a12"/><rect x="8" y="32" width="4" height="4" fill="#050a12"/><rect x="8" y="36" width="4" height="4" fill="#050a12"/><rect x="64" y="28" width="4" height="4" fill="#050a12"/><rect x="108" y="28" width="4" height="4" fill="#050a12"/><rect x="164" y="28" width="4" height="4" fill="#050a12"/><rect x="164" y="32" width="4" height="4" fill="#050a12"/><rect x="164" y="36" width="4" height="4" fill="#050a12"/><rect x="8" y="40" width="4" height="4" fill="#050a12"/><rect x="12" y="40" width="4" height="4" fill="#050a12"/><rect x="60" y="40" width="4" height="4" fill="#050a12"/><rect x="64" y="40" width="4" height="4" fill="#050a12"/><rect x="68" y="40" width="4" height="4" fill="#050a12"/><rect x="104" y="40" width="4" height="4" fill="#050a12"/><rect x="108" y="40" width="4" height="4" fill="#050a12"/><rect x="112" y="40" width="4" height="4" fill="#050a12"/><rect x="160" y="40" width="4" height="4" fill="#050a12"/><rect x="164" y="40" width="4" height="4" fill="#050a12"/><rect x="12" y="44" width="4" height="4" fill="#050a12"/><rect x="60" y="44" width="4" height="4" fill="#050a12"/><rect x="68" y="44" width="4" height="4" fill="#050a12"/><rect x="72" y="44" width="4" height="4" fill="#050a12"/><rect x="100" y="44" width="4" height="4" fill="#050a12"/><rect x="104" y="44" width="4" height="4" fill="#050a12"/><rect x="112" y="44" width="4" height="4" fill="#050a12"/><rect x="160" y="44" width="4" height="4" fill="#050a12"/><rect x="12" y="48" width="4" height="4" fill="#050a12"/><rect x="60" y="48" width="4" height="4" fill="#050a12"/><rect x="72" y="48" width="4" height="4" fill="#050a12"/><rect x="100" y="48" width="4" height="4" fill="#050a12"/><rect x="112" y="48" width="4" height="4" fill="#050a12"/><rect x="160" y="48" width="4" height="4" fill="#050a12"/><rect x="12" y="52" width="4" height="4" fill="#050a12"/><rect x="60" y="52" width="4" height="4" fill="#050a12"/><rect x="72" y="52" width="4" height="4" fill="#050a12"/><rect x="100" y="52" width="4" height="4" fill="#050a12"/><rect x="112" y="52" width="4" height="4" fill="#050a12"/><rect x="160" y="52" width="4" height="4" fill="#050a12"/><rect x="12" y="56" width="4" height="4" fill="#050a12"/><rect x="16" y="56" width="4" height="4" fill="#050a12"/><rect x="20" y="56" width="4" height="4" fill="#050a12"/><rect x="24" y="56" width="4" height="4" fill="#050a12"/><rect x="28" y="56" width="4" height="4" fill="#050a12"/><rect x="32" y="56" width="4" height="4" fill="#050a12"/><rect x="36" y="56" width="4" height="4" fill="#050a12"/><rect x="40" y="56" width="4" height="4" fill="#050a12"/><rect x="44" y="56" width="4" height="4" fill="#050a12"/><rect x="48" y="56" width="4" height="4" fill="#050a12"/><rect x="52" y="56" width="4" height="4" fill="#050a12"/><rect x="56" y="56" width="4" height="4" fill="#050a12"/><rect x="60" y="56" width="4" height="4" fill="#050a12"/><rect x="112" y="56" width="4" height="4" fill="#050a12"/><rect x="116" y="56" width="4" height="4" fill="#050a12"/><rect x="120" y="56" width="4" height="4" fill="#050a12"/><rect x="124" y="56" width="4" height="4" fill="#050a12"/><rect x="128" y="56" width="4" height="4" fill="#050a12"/><rect x="132" y="56" width="4" height="4" fill="#050a12"/><rect x="136" y="56" width="4" height="4" fill="#050a12"/><rect x="140" y="56" width="4" height="4" fill="#050a12"/><rect x="144" y="56" width="4" height="4" fill="#050a12"/><rect x="148" y="56" width="4" height="4" fill="#050a12"/><rect x="152" y="56" width="4" height="4" fill="#050a12"/><rect x="156" y="56" width="4" height="4" fill="#050a12"/><rect x="160" y="56" width="4" height="4" fill="#050a12"/><rect x="68" y="52" width="4" height="4" fill="#050a12"/><rect x="68" y="56" width="4" height="4" fill="#050a12"/><rect x="104" y="52" width="4" height="4" fill="#050a12"/><rect x="104" y="56" width="4" height="4" fill="#050a12"/><rect x="104" y="60" width="4" height="4" fill="#050a12"/><rect x="64" y="56" width="4" height="4" fill="#050a12"/><rect x="64" y="60" width="4" height="4" fill="#050a12"/><rect x="60" y="60" width="4" height="4" fill="#050a12"/><rect x="60" y="64" width="4" height="4" fill="#050a12"/><rect x="60" y="68" width="4" height="4" fill="#050a12"/><rect x="64" y="68" width="4" height="4" fill="#050a12"/><rect x="108" y="60" width="4" height="4" fill="#050a12"/><rect x="108" y="64" width="4" height="4" fill="#050a12"/><rect x="108" y="68" width="4" height="4" fill="#050a12"/><rect x="64" y="72" width="4" height="4" fill="#050a12"/><rect x="68" y="72" width="4" height="4" fill="#050a12"/><rect x="104" y="72" width="4" height="4" fill="#050a12"/><rect x="108" y="72" width="4" height="4" fill="#050a12"/><rect x="68" y="76" width="4" height="4" fill="#050a12"/><rect x="104" y="76" width="4" height="4" fill="#050a12"/><rect x="68" y="80" width="4" height="4" fill="#050a12"/><rect x="72" y="80" width="4" height="4" fill="#050a12"/><rect x="100" y="80" width="4" height="4" fill="#050a12"/><rect x="104" y="80" width="4" height="4" fill="#050a12"/><rect x="72" y="84" width="4" height="4" fill="#050a12"/><rect x="76" y="84" width="4" height="4" fill="#050a12"/><rect x="80" y="84" width="4" height="4" fill="#050a12"/><rect x="92" y="84" width="4" height="4" fill="#050a12"/><rect x="96" y="84" width="4" height="4" fill="#050a12"/><rect x="100" y="84" width="4" height="4" fill="#050a12"/><rect x="80" y="88" width="4" height="4" fill="#050a12"/><rect x="84" y="88" width="4" height="4" fill="#050a12"/><rect x="88" y="88" width="4" height="4" fill="#050a12"/><rect x="92" y="88" width="4" height="4" fill="#050a12"/><rect x="16" y="8" width="4" height="4" fill="#545e6a"/><rect x="20" y="8" width="4" height="4" fill="#545e6a"/><rect x="24" y="8" width="4" height="4" fill="#3e4754"/><rect x="28" y="8" width="4" height="4" fill="#545e6a"/><rect x="32" y="8" width="4" height="4" fill="#545e6a"/><rect x="36" y="8" width="4" height="4" fill="#3e4754"/><rect x="40" y="8" width="4" height="4" fill="#545e6a"/><rect x="44" y="8" width="4" height="4" fill="#545e6a"/><rect x="48" y="8" width="4" height="4" fill="#3e4754"/><rect x="52" y="8" width="4" height="4" fill="#545e6a"/><rect x="56" y="8" width="4" height="4" fill="#545e6a"/><rect x="76" y="8" width="4" height="4" fill="#4a5560"/><rect x="80" y="8" width="4" height="4" fill="#5e6874"/><rect x="84" y="8" width="4" height="4" fill="#5e6874"/><rect x="88" y="8" width="4" height="4" fill="#5e6874"/><rect x="92" y="8" width="4" height="4" fill="#5e6874"/><rect x="96" y="8" width="4" height="4" fill="#4a5560"/><rect x="116" y="8" width="4" height="4" fill="#545e6a"/><rect x="120" y="8" width="4" height="4" fill="#545e6a"/><rect x="124" y="8" width="4" height="4" fill="#3e4754"/><rect x="128" y="8" width="4" height="4" fill="#545e6a"/><rect x="132" y="8" width="4" height="4" fill="#545e6a"/><rect x="136" y="8" width="4" height="4" fill="#3e4754"/><rect x="140" y="8" width="4" height="4" fill="#545e6a"/><rect x="144" y="8" width="4" height="4" fill="#545e6a"/><rect x="148" y="8" width="4" height="4" fill="#3e4754"/><rect x="152" y="8" width="4" height="4" fill="#545e6a"/><rect x="156" y="8" width="4" height="4" fill="#545e6a"/><rect x="16" y="12" width="4" height="4" fill="#545e6a"/><rect x="20" y="12" width="4" height="4" fill="#545e6a"/><rect x="24" y="12" width="4" height="4" fill="#3e4754"/><rect x="28" y="12" width="4" height="4" fill="#545e6a"/><rect x="32" y="12" width="4" height="4" fill="#545e6a"/><rect x="36" y="12" width="4" height="4" fill="#3e4754"/><rect x="40" y="12" width="4" height="4" fill="#545e6a"/><rect x="44" y="12" width="4" height="4" fill="#545e6a"/><rect x="48" y="12" width="4" height="4" fill="#3e4754"/><rect x="52" y="12" width="4" height="4" fill="#545e6a"/><rect x="56" y="12" width="4" height="4" fill="#545e6a"/><rect x="76" y="12" width="4" height="4" fill="#4a5560"/><rect x="80" y="12" width="4" height="4" fill="#5e6874"/><rect x="84" y="12" width="4" height="4" fill="#2b333d"/><rect x="88" y="12" width="4" height="4" fill="#2b333d"/><rect x="92" y="12" width="4" height="4" fill="#5e6874"/><rect x="96" y="12" width="4" height="4" fill="#4a5560"/><rect x="116" y="12" width="4" height="4" fill="#545e6a"/><rect x="120" y="12" width="4" height="4" fill="#545e6a"/><rect x="124" y="12" width="4" height="4" fill="#3e4754"/><rect x="128" y="12" width="4" height="4" fill="#545e6a"/><rect x="132" y="12" width="4" height="4" fill="#545e6a"/><rect x="136" y="12" width="4" height="4" fill="#3e4754"/><rect x="140" y="12" width="4" height="4" fill="#545e6a"/><rect x="144" y="12" width="4" height="4" fill="#545e6a"/><rect x="148" y="12" width="4" height="4" fill="#3e4754"/><rect x="152" y="12" width="4" height="4" fill="#545e6a"/><rect x="156" y="12" width="4" height="4" fill="#545e6a"/><rect x="16" y="16" width="4" height="4" fill="#545e6a"/><rect x="20" y="16" width="4" height="4" fill="#545e6a"/><rect x="24" y="16" width="4" height="4" fill="#3e4754"/><rect x="28" y="16" width="4" height="4" fill="#545e6a"/><rect x="32" y="16" width="4" height="4" fill="#545e6a"/><rect x="36" y="16" width="4" height="4" fill="#3e4754"/><rect x="40" y="16" width="4" height="4" fill="#545e6a"/><rect x="44" y="16" width="4" height="4" fill="#545e6a"/><rect x="48" y="16" width="4" height="4" fill="#3e4754"/><rect x="52" y="16" width="4" height="4" fill="#545e6a"/><rect x="56" y="16" width="4" height="4" fill="#545e6a"/><rect x="72" y="16" width="4" height="4" fill="#4a5560"/><rect x="76" y="16" width="4" height="4" fill="#4a5560"/><rect x="80" y="16" width="4" height="4" fill="#5e6874"/><rect x="84" y="16" width="4" height="4" fill="#2b333d"/><rect x="88" y="16" width="4" height="4" fill="#2b333d"/><rect x="92" y="16" width="4" height="4" fill="#5e6874"/><rect x="96" y="16" width="4" height="4" fill="#4a5560"/><rect x="100" y="16" width="4" height="4" fill="#4a5560"/><rect x="116" y="16" width="4" height="4" fill="#545e6a"/><rect x="120" y="16" width="4" height="4" fill="#545e6a"/><rect x="124" y="16" width="4" height="4" fill="#3e4754"/><rect x="128" y="16" width="4" height="4" fill="#545e6a"/><rect x="132" y="16" width="4" height="4" fill="#545e6a"/><rect x="136" y="16" width="4" height="4" fill="#3e4754"/><rect x="140" y="16" width="4" height="4" fill="#545e6a"/><rect x="144" y="16" width="4" height="4" fill="#545e6a"/><rect x="148" y="16" width="4" height="4" fill="#3e4754"/><rect x="152" y="16" width="4" height="4" fill="#545e6a"/><rect x="156" y="16" width="4" height="4" fill="#545e6a"/><rect x="16" y="20" width="4" height="4" fill="#545e6a"/><rect x="20" y="20" width="4" height="4" fill="#545e6a"/><rect x="24" y="20" width="4" height="4" fill="#3e4754"/><rect x="28" y="20" width="4" height="4" fill="#545e6a"/><rect x="32" y="20" width="4" height="4" fill="#545e6a"/><rect x="36" y="20" width="4" height="4" fill="#3e4754"/><rect x="40" y="20" width="4" height="4" fill="#545e6a"/><rect x="44" y="20" width="4" height="4" fill="#545e6a"/><rect x="48" y="20" width="4" height="4" fill="#3e4754"/><rect x="52" y="20" width="4" height="4" fill="#545e6a"/><rect x="56" y="20" width="4" height="4" fill="#545e6a"/><rect x="76" y="20" width="4" height="4" fill="#4a5560"/><rect x="80" y="20" width="4" height="4" fill="#5e6874"/><rect x="84" y="20" width="4" height="4" fill="#2b333d"/><rect x="88" y="20" width="4" height="4" fill="#2b333d"/><rect x="92" y="20" width="4" height="4" fill="#5e6874"/><rect x="96" y="20" width="4" height="4" fill="#4a5560"/><rect x="116" y="20" width="4" height="4" fill="#545e6a"/><rect x="120" y="20" width="4" height="4" fill="#545e6a"/><rect x="124" y="20" width="4" height="4" fill="#3e4754"/><rect x="128" y="20" width="4" height="4" fill="#545e6a"/><rect x="132" y="20" width="4" height="4" fill="#545e6a"/><rect x="136" y="20" width="4" height="4" fill="#3e4754"/><rect x="140" y="20" width="4" height="4" fill="#545e6a"/><rect x="144" y="20" width="4" height="4" fill="#545e6a"/><rect x="148" y="20" width="4" height="4" fill="#3e4754"/><rect x="152" y="20" width="4" height="4" fill="#545e6a"/><rect x="156" y="20" width="4" height="4" fill="#545e6a"/><rect x="16" y="24" width="4" height="4" fill="#3e4754"/><rect x="20" y="24" width="4" height="4" fill="#3e4754"/><rect x="24" y="24" width="4" height="4" fill="#7f8a97"/><rect x="28" y="24" width="4" height="4" fill="#3e4754"/><rect x="32" y="24" width="4" height="4" fill="#3e4754"/><rect x="36" y="24" width="4" height="4" fill="#7f8a97"/><rect x="40" y="24" width="4" height="4" fill="#3e4754"/><rect x="44" y="24" width="4" height="4" fill="#3e4754"/><rect x="48" y="24" width="4" height="4" fill="#7f8a97"/><rect x="52" y="24" width="4" height="4" fill="#3e4754"/><rect x="56" y="24" width="4" height="4" fill="#3e4754"/><rect x="76" y="24" width="4" height="4" fill="#2b333d"/><rect x="80" y="24" width="4" height="4" fill="#5e6874"/><rect x="84" y="24" width="4" height="4" fill="#5e6874"/><rect x="88" y="24" width="4" height="4" fill="#5e6874"/><rect x="92" y="24" width="4" height="4" fill="#5e6874"/><rect x="96" y="24" width="4" height="4" fill="#2b333d"/><rect x="116" y="24" width="4" height="4" fill="#3e4754"/><rect x="120" y="24" width="4" height="4" fill="#3e4754"/><rect x="124" y="24" width="4" height="4" fill="#7f8a97"/><rect x="128" y="24" width="4" height="4" fill="#3e4754"/><rect x="132" y="24" width="4" height="4" fill="#3e4754"/><rect x="136" y="24" width="4" height="4" fill="#7f8a97"/><rect x="140" y="24" width="4" height="4" fill="#3e4754"/><rect x="144" y="24" width="4" height="4" fill="#3e4754"/><rect x="148" y="24" width="4" height="4" fill="#7f8a97"/><rect x="152" y="24" width="4" height="4" fill="#3e4754"/><rect x="156" y="24" width="4" height="4" fill="#3e4754"/><rect x="16" y="28" width="4" height="4" fill="#545e6a"/><rect x="20" y="28" width="4" height="4" fill="#545e6a"/><rect x="24" y="28" width="4" height="4" fill="#3e4754"/><rect x="28" y="28" width="4" height="4" fill="#545e6a"/><rect x="32" y="28" width="4" height="4" fill="#545e6a"/><rect x="36" y="28" width="4" height="4" fill="#3e4754"/><rect x="40" y="28" width="4" height="4" fill="#545e6a"/><rect x="44" y="28" width="4" height="4" fill="#545e6a"/><rect x="48" y="28" width="4" height="4" fill="#3e4754"/><rect x="52" y="28" width="4" height="4" fill="#545e6a"/><rect x="56" y="28" width="4" height="4" fill="#545e6a"/><rect x="72" y="28" width="4" height="4" fill="#2b333d"/><rect x="76" y="28" width="4" height="4" fill="#5e6874"/><rect x="80" y="28" width="4" height="4" fill="#5e6874"/><rect x="84" y="28" width="4" height="4" fill="#5e6874"/><rect x="88" y="28" width="4" height="4" fill="#5e6874"/><rect x="92" y="28" width="4" height="4" fill="#5e6874"/><rect x="96" y="28" width="4" height="4" fill="#5e6874"/><rect x="100" y="28" width="4" height="4" fill="#2b333d"/><rect x="116" y="28" width="4" height="4" fill="#545e6a"/><rect x="120" y="28" width="4" height="4" fill="#545e6a"/><rect x="124" y="28" width="4" height="4" fill="#3e4754"/><rect x="128" y="28" width="4" height="4" fill="#545e6a"/><rect x="132" y="28" width="4" height="4" fill="#545e6a"/><rect x="136" y="28" width="4" height="4" fill="#3e4754"/><rect x="140" y="28" width="4" height="4" fill="#545e6a"/><rect x="144" y="28" width="4" height="4" fill="#545e6a"/><rect x="148" y="28" width="4" height="4" fill="#3e4754"/><rect x="152" y="28" width="4" height="4" fill="#545e6a"/><rect x="156" y="28" width="4" height="4" fill="#545e6a"/><rect x="12" y="32" width="4" height="4" fill="#545e6a"/><rect x="16" y="32" width="4" height="4" fill="#545e6a"/><rect x="20" y="32" width="4" height="4" fill="#545e6a"/><rect x="24" y="32" width="4" height="4" fill="#3e4754"/><rect x="28" y="32" width="4" height="4" fill="#545e6a"/><rect x="32" y="32" width="4" height="4" fill="#545e6a"/><rect x="36" y="32" width="4" height="4" fill="#3e4754"/><rect x="40" y="32" width="4" height="4" fill="#545e6a"/><rect x="44" y="32" width="4" height="4" fill="#545e6a"/><rect x="48" y="32" width="4" height="4" fill="#3e4754"/><rect x="52" y="32" width="4" height="4" fill="#545e6a"/><rect x="56" y="32" width="4" height="4" fill="#545e6a"/><rect x="60" y="32" width="4" height="4" fill="#3e4754"/><rect x="64" y="32" width="4" height="4" fill="#545e6a"/><rect x="68" y="32" width="4" height="4" fill="#545e6a"/><rect x="72" y="32" width="4" height="4" fill="#2b333d"/><rect x="76" y="32" width="4" height="4" fill="#5e6874"/><rect x="80" y="32" width="4" height="4" fill="#5e6874"/><rect x="84" y="32" width="4" height="4" fill="#2b333d"/><rect x="88" y="32" width="4" height="4" fill="#2b333d"/><rect x="92" y="32" width="4" height="4" fill="#5e6874"/><rect x="96" y="32" width="4" height="4" fill="#5e6874"/><rect x="100" y="32" width="4" height="4" fill="#2b333d"/><rect x="104" y="32" width="4" height="4" fill="#545e6a"/><rect x="108" y="32" width="4" height="4" fill="#545e6a"/><rect x="112" y="32" width="4" height="4" fill="#3e4754"/><rect x="116" y="32" width="4" height="4" fill="#545e6a"/><rect x="120" y="32" width="4" height="4" fill="#545e6a"/><rect x="124" y="32" width="4" height="4" fill="#3e4754"/><rect x="128" y="32" width="4" height="4" fill="#545e6a"/><rect x="132" y="32" width="4" height="4" fill="#545e6a"/><rect x="136" y="32" width="4" height="4" fill="#3e4754"/><rect x="140" y="32" width="4" height="4" fill="#545e6a"/><rect x="144" y="32" width="4" height="4" fill="#545e6a"/><rect x="148" y="32" width="4" height="4" fill="#3e4754"/><rect x="152" y="32" width="4" height="4" fill="#545e6a"/><rect x="156" y="32" width="4" height="4" fill="#545e6a"/><rect x="160" y="32" width="4" height="4" fill="#3e4754"/><rect x="12" y="36" width="4" height="4" fill="#545e6a"/><rect x="16" y="36" width="4" height="4" fill="#545e6a"/><rect x="20" y="36" width="4" height="4" fill="#545e6a"/><rect x="24" y="36" width="4" height="4" fill="#3e4754"/><rect x="28" y="36" width="4" height="4" fill="#545e6a"/><rect x="32" y="36" width="4" height="4" fill="#545e6a"/><rect x="36" y="36" width="4" height="4" fill="#3e4754"/><rect x="40" y="36" width="4" height="4" fill="#545e6a"/><rect x="44" y="36" width="4" height="4" fill="#545e6a"/><rect x="48" y="36" width="4" height="4" fill="#3e4754"/><rect x="52" y="36" width="4" height="4" fill="#545e6a"/><rect x="56" y="36" width="4" height="4" fill="#545e6a"/><rect x="60" y="36" width="4" height="4" fill="#3e4754"/><rect x="64" y="36" width="4" height="4" fill="#545e6a"/><rect x="68" y="36" width="4" height="4" fill="#545e6a"/><rect x="72" y="36" width="4" height="4" fill="#2b333d"/><rect x="76" y="36" width="4" height="4" fill="#5e6874"/><rect x="80" y="36" width="4" height="4" fill="#5e6874"/><rect x="84" y="36" width="4" height="4" fill="#2b333d"/><rect x="88" y="36" width="4" height="4" fill="#2b333d"/><rect x="92" y="36" width="4" height="4" fill="#5e6874"/><rect x="96" y="36" width="4" height="4" fill="#5e6874"/><rect x="100" y="36" width="4" height="4" fill="#2b333d"/><rect x="104" y="36" width="4" height="4" fill="#545e6a"/><rect x="108" y="36" width="4" height="4" fill="#545e6a"/><rect x="112" y="36" width="4" height="4" fill="#3e4754"/><rect x="116" y="36" width="4" height="4" fill="#545e6a"/><rect x="120" y="36" width="4" height="4" fill="#545e6a"/><rect x="124" y="36" width="4" height="4" fill="#3e4754"/><rect x="128" y="36" width="4" height="4" fill="#545e6a"/><rect x="132" y="36" width="4" height="4" fill="#545e6a"/><rect x="136" y="36" width="4" height="4" fill="#3e4754"/><rect x="140" y="36" width="4" height="4" fill="#545e6a"/><rect x="144" y="36" width="4" height="4" fill="#545e6a"/><rect x="148" y="36" width="4" height="4" fill="#3e4754"/><rect x="152" y="36" width="4" height="4" fill="#545e6a"/><rect x="156" y="36" width="4" height="4" fill="#545e6a"/><rect x="160" y="36" width="4" height="4" fill="#3e4754"/><rect x="16" y="40" width="4" height="4" fill="#545e6a"/><rect x="20" y="40" width="4" height="4" fill="#545e6a"/><rect x="24" y="40" width="4" height="4" fill="#3e4754"/><rect x="28" y="40" width="4" height="4" fill="#545e6a"/><rect x="32" y="40" width="4" height="4" fill="#545e6a"/><rect x="36" y="40" width="4" height="4" fill="#3e4754"/><rect x="40" y="40" width="4" height="4" fill="#545e6a"/><rect x="44" y="40" width="4" height="4" fill="#545e6a"/><rect x="48" y="40" width="4" height="4" fill="#3e4754"/><rect x="52" y="40" width="4" height="4" fill="#545e6a"/><rect x="56" y="40" width="4" height="4" fill="#545e6a"/><rect x="72" y="40" width="4" height="4" fill="#2b333d"/><rect x="76" y="40" width="4" height="4" fill="#5e6874"/><rect x="80" y="40" width="4" height="4" fill="#5e6874"/><rect x="84" y="40" width="4" height="4" fill="#5e6874"/><rect x="88" y="40" width="4" height="4" fill="#5e6874"/><rect x="92" y="40" width="4" height="4" fill="#5e6874"/><rect x="96" y="40" width="4" height="4" fill="#5e6874"/><rect x="100" y="40" width="4" height="4" fill="#2b333d"/><rect x="116" y="40" width="4" height="4" fill="#545e6a"/><rect x="120" y="40" width="4" height="4" fill="#545e6a"/><rect x="124" y="40" width="4" height="4" fill="#3e4754"/><rect x="128" y="40" width="4" height="4" fill="#545e6a"/><rect x="132" y="40" width="4" height="4" fill="#545e6a"/><rect x="136" y="40" width="4" height="4" fill="#3e4754"/><rect x="140" y="40" width="4" height="4" fill="#545e6a"/><rect x="144" y="40" width="4" height="4" fill="#545e6a"/><rect x="148" y="40" width="4" height="4" fill="#3e4754"/><rect x="152" y="40" width="4" height="4" fill="#545e6a"/><rect x="156" y="40" width="4" height="4" fill="#545e6a"/><rect x="16" y="44" width="4" height="4" fill="#3e4754"/><rect x="20" y="44" width="4" height="4" fill="#3e4754"/><rect x="24" y="44" width="4" height="4" fill="#7f8a97"/><rect x="28" y="44" width="4" height="4" fill="#3e4754"/><rect x="32" y="44" width="4" height="4" fill="#3e4754"/><rect x="36" y="44" width="4" height="4" fill="#7f8a97"/><rect x="40" y="44" width="4" height="4" fill="#3e4754"/><rect x="44" y="44" width="4" height="4" fill="#3e4754"/><rect x="48" y="44" width="4" height="4" fill="#7f8a97"/><rect x="52" y="44" width="4" height="4" fill="#3e4754"/><rect x="56" y="44" width="4" height="4" fill="#3e4754"/><rect x="76" y="44" width="4" height="4" fill="#2b333d"/><rect x="80" y="44" width="4" height="4" fill="#5e6874"/><rect x="84" y="44" width="4" height="4" fill="#5e6874"/><rect x="88" y="44" width="4" height="4" fill="#5e6874"/><rect x="92" y="44" width="4" height="4" fill="#5e6874"/><rect x="96" y="44" width="4" height="4" fill="#2b333d"/><rect x="116" y="44" width="4" height="4" fill="#3e4754"/><rect x="120" y="44" width="4" height="4" fill="#3e4754"/><rect x="124" y="44" width="4" height="4" fill="#7f8a97"/><rect x="128" y="44" width="4" height="4" fill="#3e4754"/><rect x="132" y="44" width="4" height="4" fill="#3e4754"/><rect x="136" y="44" width="4" height="4" fill="#7f8a97"/><rect x="140" y="44" width="4" height="4" fill="#3e4754"/><rect x="144" y="44" width="4" height="4" fill="#3e4754"/><rect x="148" y="44" width="4" height="4" fill="#7f8a97"/><rect x="152" y="44" width="4" height="4" fill="#3e4754"/><rect x="156" y="44" width="4" height="4" fill="#3e4754"/><rect x="16" y="48" width="4" height="4" fill="#545e6a"/><rect x="20" y="48" width="4" height="4" fill="#545e6a"/><rect x="24" y="48" width="4" height="4" fill="#3e4754"/><rect x="28" y="48" width="4" height="4" fill="#545e6a"/><rect x="32" y="48" width="4" height="4" fill="#545e6a"/><rect x="36" y="48" width="4" height="4" fill="#3e4754"/><rect x="40" y="48" width="4" height="4" fill="#545e6a"/><rect x="44" y="48" width="4" height="4" fill="#545e6a"/><rect x="48" y="48" width="4" height="4" fill="#3e4754"/><rect x="52" y="48" width="4" height="4" fill="#545e6a"/><rect x="56" y="48" width="4" height="4" fill="#545e6a"/><rect x="76" y="48" width="4" height="4" fill="#4a5560"/><rect x="80" y="48" width="4" height="4" fill="#5e6874"/><rect x="84" y="48" width="4" height="4" fill="#2b333d"/><rect x="88" y="48" width="4" height="4" fill="#2b333d"/><rect x="92" y="48" width="4" height="4" fill="#5e6874"/><rect x="96" y="48" width="4" height="4" fill="#4a5560"/><rect x="116" y="48" width="4" height="4" fill="#545e6a"/><rect x="120" y="48" width="4" height="4" fill="#545e6a"/><rect x="124" y="48" width="4" height="4" fill="#3e4754"/><rect x="128" y="48" width="4" height="4" fill="#545e6a"/><rect x="132" y="48" width="4" height="4" fill="#545e6a"/><rect x="136" y="48" width="4" height="4" fill="#3e4754"/><rect x="140" y="48" width="4" height="4" fill="#545e6a"/><rect x="144" y="48" width="4" height="4" fill="#545e6a"/><rect x="148" y="48" width="4" height="4" fill="#3e4754"/><rect x="152" y="48" width="4" height="4" fill="#545e6a"/><rect x="156" y="48" width="4" height="4" fill="#545e6a"/><rect x="16" y="52" width="4" height="4" fill="#545e6a"/><rect x="20" y="52" width="4" height="4" fill="#545e6a"/><rect x="24" y="52" width="4" height="4" fill="#3e4754"/><rect x="28" y="52" width="4" height="4" fill="#545e6a"/><rect x="32" y="52" width="4" height="4" fill="#545e6a"/><rect x="36" y="52" width="4" height="4" fill="#3e4754"/><rect x="40" y="52" width="4" height="4" fill="#545e6a"/><rect x="44" y="52" width="4" height="4" fill="#545e6a"/><rect x="48" y="52" width="4" height="4" fill="#3e4754"/><rect x="52" y="52" width="4" height="4" fill="#545e6a"/><rect x="56" y="52" width="4" height="4" fill="#545e6a"/><rect x="76" y="52" width="4" height="4" fill="#2b333d"/><rect x="80" y="52" width="4" height="4" fill="#2b333d"/><rect x="84" y="52" width="4" height="4" fill="#2b333d"/><rect x="88" y="52" width="4" height="4" fill="#2b333d"/><rect x="92" y="52" width="4" height="4" fill="#2b333d"/><rect x="96" y="52" width="4" height="4" fill="#2b333d"/><rect x="116" y="52" width="4" height="4" fill="#545e6a"/><rect x="120" y="52" width="4" height="4" fill="#545e6a"/><rect x="124" y="52" width="4" height="4" fill="#3e4754"/><rect x="128" y="52" width="4" height="4" fill="#545e6a"/><rect x="132" y="52" width="4" height="4" fill="#545e6a"/><rect x="136" y="52" width="4" height="4" fill="#3e4754"/><rect x="140" y="52" width="4" height="4" fill="#545e6a"/><rect x="144" y="52" width="4" height="4" fill="#545e6a"/><rect x="148" y="52" width="4" height="4" fill="#3e4754"/><rect x="152" y="52" width="4" height="4" fill="#545e6a"/><rect x="156" y="52" width="4" height="4" fill="#545e6a"/><rect x="72" y="56" width="4" height="4" fill="#2b333d"/><rect x="76" y="56" width="4" height="4" fill="#2b333d"/><rect x="80" y="56" width="4" height="4" fill="#4a5560"/><rect x="84" y="56" width="4" height="4" fill="#4a5560"/><rect x="88" y="56" width="4" height="4" fill="#4a5560"/><rect x="92" y="56" width="4" height="4" fill="#4a5560"/><rect x="96" y="56" width="4" height="4" fill="#2b333d"/><rect x="100" y="56" width="4" height="4" fill="#2b333d"/><rect x="68" y="60" width="4" height="4" fill="#4a5560"/><rect x="72" y="60" width="4" height="4" fill="#2b333d"/><rect x="76" y="60" width="4" height="4" fill="#4a5560"/><rect x="80" y="60" width="4" height="4" fill="#4a5560"/><rect x="84" y="60" width="4" height="4" fill="#131c28"/><rect x="88" y="60" width="4" height="4" fill="#131c28"/><rect x="92" y="60" width="4" height="4" fill="#4a5560"/><rect x="96" y="60" width="4" height="4" fill="#4a5560"/><rect x="100" y="60" width="4" height="4" fill="#2b333d"/><rect x="64" y="64" width="4" height="4" fill="#4a5560"/><rect x="68" y="64" width="4" height="4" fill="#2b333d"/><rect x="72" y="64" width="4" height="4" fill="#2b333d"/><rect x="76" y="64" width="4" height="4" fill="#4a5560"/><rect x="80" y="64" width="4" height="4" fill="#4a5560"/><rect x="84" y="64" width="4" height="4" fill="#131c28"/><rect x="88" y="64" width="4" height="4" fill="#131c28"/><rect x="92" y="64" width="4" height="4" fill="#4a5560"/><rect x="96" y="64" width="4" height="4" fill="#4a5560"/><rect x="100" y="64" width="4" height="4" fill="#2b333d"/><rect x="104" y="64" width="4" height="4" fill="#2b333d"/><rect x="68" y="68" width="4" height="4" fill="#2b333d"/><rect x="72" y="68" width="4" height="4" fill="#2b333d"/><rect x="76" y="68" width="4" height="4" fill="#4a5560"/><rect x="80" y="68" width="4" height="4" fill="#4a5560"/><rect x="84" y="68" width="4" height="4" fill="#131c28"/><rect x="88" y="68" width="4" height="4" fill="#131c28"/><rect x="92" y="68" width="4" height="4" fill="#4a5560"/><rect x="96" y="68" width="4" height="4" fill="#4a5560"/><rect x="100" y="68" width="4" height="4" fill="#2b333d"/><rect x="104" y="68" width="4" height="4" fill="#2b333d"/><rect x="72" y="72" width="4" height="4" fill="#2b333d"/><rect x="76" y="72" width="4" height="4" fill="#4a5560"/><rect x="80" y="72" width="4" height="4" fill="#4a5560"/><rect x="84" y="72" width="4" height="4" fill="#4a5560"/><rect x="88" y="72" width="4" height="4" fill="#4a5560"/><rect x="92" y="72" width="4" height="4" fill="#4a5560"/><rect x="96" y="72" width="4" height="4" fill="#4a5560"/><rect x="100" y="72" width="4" height="4" fill="#2b333d"/><rect x="72" y="76" width="4" height="4" fill="#2b333d"/><rect x="76" y="76" width="4" height="4" fill="#2b333d"/><rect x="80" y="76" width="4" height="4" fill="#4a5560"/><rect x="84" y="76" width="4" height="4" fill="#4a5560"/><rect x="88" y="76" width="4" height="4" fill="#4a5560"/><rect x="92" y="76" width="4" height="4" fill="#4a5560"/><rect x="96" y="76" width="4" height="4" fill="#2b333d"/><rect x="100" y="76" width="4" height="4" fill="#2b333d"/><rect x="76" y="80" width="4" height="4" fill="#2b333d"/><rect x="80" y="80" width="4" height="4" fill="#2b333d"/><rect x="84" y="80" width="4" height="4" fill="#2b333d"/><rect x="88" y="80" width="4" height="4" fill="#2b333d"/><rect x="92" y="80" width="4" height="4" fill="#2b333d"/><rect x="96" y="80" width="4" height="4" fill="#2b333d"/><rect x="84" y="84" width="4" height="4" fill="#2b333d"/><rect x="88" y="84" width="4" height="4" fill="#2b333d"/></svg>
