<svg xmlns="http://www.w3.org/2000/svg" viewBox="0 0 260 335" width="260" height="335" shape-rendering="crispEdges" role="img" aria-label="zodk.eu" xmlns:c2pa="http://c2pa.org/manifest"><metadata><c2pa:manifest>AAAWgmp1bWIAAAAeanVtZGMycGEAEQAQgAAAqgA4m3EDYzJwYQAAABZcanVtYgAAAEdqdW1kYzJtYQARABCAAACqADibcQN1cm46YzJwYTpjNTM5ODA0ZS0wMDIzLTRmOTktYjNhNi1jMjQ1Mjk2ZjllODMAAAADl2p1bWIAAAApanVtZGMyYXMAEQAQgAAAqgA4m3EDYzJwYS5hc3NlcnRpb25zAAAAALxqdW1iAAAARGp1bWRjYm9yABEAEIAAAKoAOJtxE2MycGEuaW5ncmVkaWVudC52MwAAAAAYYzJzaAx4tnZSA97dx58JTVFJSygAAABwY2JvcqNpZGM6Zm9ybWF0bWltYWdlL3N2Zyt4bWxqaW5zdGFuY2VJRHgseG1wOmlpZDozNjRlZTgyYi02MTc2LTQwN2UtYjgwNy03OTc2NTRkZmFhZWFscmVsYXRpb25zaGlwaHBhcmVudE9mAAAB4mp1bWIAAABBanVtZGNib3IAEQAQgAAAqgA4m3ETYzJwYS5hY3Rpb25zLnYyAAAAABhjMnNoV9Fa2SpGTlthEZJAPXqi+gAAAZljYm9yomdhY3Rpb25zgqJmYWN0aW9ua2MycGEub3BlbmVkanBhcmFtZXRlcnOha2luZ3JlZGllbnRzgaJjdXJseC1zZWxmI2p1bWJmPWMycGEuYXNzZXJ0aW9ucy9jMnBhLmluZ3JlZGllbnQudjNkaGFzaFggFB/ohUrzPqwXO8Z2hc/u7zeIclxq1SntqPTF2YZBG8CkZmFjdGlvbngdY29tLmFudGhyb3BpYy5jbGF1ZGUucHJvdmlkZWRqcGFyYW1ldGVyc6F4H2NvbS5hbnRocm9waWMub3JpZ2luLWNvbmZpZGVuY2VndW5rbm93bmtkZXNjcmlwdGlvbnhmQ2xhdWRlIHByb3ZpZGVkIHRoaXMgZmlsZSBhdCB0aGUgcmVxdWVzdCBvZiBhIHVzZXIgYW5kIG1heSBoYXZlIGNyZWF0ZWQgb3IgbW9kaWZpZWQgdGhlIGZpbGUgY29udGVudHMubXNvZnR3YXJlQWdlbnShZG5hbWVmQ2xhdWRlcmFsbEFjdGlvbnNJbmNsdWRlZPUAAADIanVtYgAAAEBqdW1kY2JvcgARABCAAACqADibcRNjMnBhLmhhc2guZGF0YQAAAAAYYzJzaE7gisPURMtbFJnbsoHJwCgAAACAY2JvcqVjYWxnZnNoYTI1NmNwYWRNAAAAAAAAAAAAAAAAAGRoYXNoWCDO27mTuKmKw3lq7lukDNgfKJ8yUYdonPJkpMsniSDa5mRuYW1lbmp1bWJmIG1hbmlmZXN0amV4Y2x1c2lvbnOBomVzdGFydBjTZmxlbmd0aBkeBAAAAj5qdW1iAAAAJ2p1bWRjMmNsABEAEIAAAKoAOJtxA2MycGEuY2xhaW0udjIAAAACD2Nib3KlY2FsZ2ZzaGEyNTZpc2lnbmF0dXJleE1zZWxmI2p1bWJmPS9jMnBhL3VybjpjMnBhOmM1Mzk4MDRlLTAwMjMtNGY5OS1iM2E2LWMyNDUyOTZmOWU4My9jMnBhLnNpZ25hdHVyZWppbnN0YW5jZUlEeCx4bXA6aWlkOmExMWNhZjJhLWViNGEtNDQwNS1iZmRmLWViZGZmOGQ0NGRlY3JjcmVhdGVkX2Fzc2VydGlvbnODomN1cmx4LXNlbGYjanVtYmY9YzJwYS5hc3NlcnRpb25zL2MycGEuaW5ncmVkaWVudC52M2RoYXNoWCAUH+iFSvM+rBc7xnaFz+7vN4hyXGrVKe2o9MXZhkEbwKJjdXJseCpzZWxmI2p1bWJmPWMycGEuYXNzZXJ0aW9ucy9jMnBhLmFjdGlvbnMudjJkaGFzaFgg2iJfSBNIRHxava5IuSYyO3WAD5DGgPx4OxHf/4dRndaiY3VybHgpc2VsZiNqdW1iZj1jMnBhLmFzc2VydGlvbnMvYzJwYS5oYXNoLmRhdGFkaGFzaFggk3QrKO6cwr3+Kz19c87DzgEx2tuJqC/XqHUvLFOhJJd0Y2xhaW1fZ2VuZXJhdG9yX2luZm+jZG5hbWVvQW50aHJvcGljIEZpbGVzZ3ZlcnNpb25lMS4wLjBrc3BlY1ZlcnNpb25lMi40LjAAABA4anVtYgAAAChqdW1kYzJjcwARABCAAACqADibcQNjMnBhLnNpZ25hdHVyZQAAABAIY2JvctKEWQISogEmGCFZAgowggIGMIIBjaADAgECAhRA5aAK7sI50L64g/oGQgU9Z1UTADAKBggqhkjOPQQDAzBJMRcwFQYDVQQKEw5BbnRocm9waWMsIFBCQzEuMCwGA1UEAxMlQW50aHJvcGljIENvbnRlbnQgQ3JlZGVudGlhbHMgUm9vdCBDQTAeFw0yNjA4MDcxODQzNTZaFw0yODA4MDYxOTQzNTZaMEQxFzAVBgNVBAoTDkFudGhyb3BpYywgUEJDMSkwJwYDVQQDEyBBbnRocm9waWMgQ2xhdWRlIENvbnRlbnQgU2lnbmluZzBZMBMGByqGSM49AgEGCCqGSM49AwEHA0IABJh6CmvLUBgFFNU0vUKlOVtE6djd17L5SuwX0LemFisBM3dkd/3cyjxFA3Qo5S46fX0/ihY0VZ7mfb9KF703t5OjWDBWMA4GA1UdDwEB/wQEAwIHgDAVBgNVHSUEDjAMBgorBgEEAYPoXgIBMAwGA1UdEwEB/wQCMAAwHwYDVR0jBBgwFoAUzlHiBIFOZFsj+OPEz5o+nMHXXMIwCgYIKoZIzj0EAwMDZwAwZAIwMXMdFJ4BetLLVY7ORuE9noqbbAZOZn/aArXyTwFAZfKrPzxF2vPoJNf1+UCdg1XGAjBwX1zd9WGqYkqmL5SFqw1QySjr1zJfpJM9+1rdDwSPLMOPOjKuiXjoU/pUUeG9RwmhY3BhZFkNngAAAAAAAAAAAAAAAAAAAAAAAAAAAAAAAAAAAAAAAAAAAAAAAAAAAAAAAAAAAAAAAAAAAAAAAAAAAAAAAAAAAAAAAAAAAAAAAAAAAAAAAAAAAAAAAAAAAAAAAAAAAAAAAAAAAAAAAAAAAAAAAAAAAAAAAAAAAAAAAAAAAAAAAAAAAAAAAAAAAAAAAAAAAAAAAAAAAAAAAAAAAAAAAAAAAAAAAAAAAAAAAAAAAAAAAAAAAAAAAAAAAAAAAAAAAAAAAAAAAAAAAAAAAAAAAAAAAAAAAAAAAAAAAAAAAAAAAAAAAAAAAAAAAAAAAAAAAAAAAAAAAAAAAAAAAAAAAAAAAAAAAAAAAAAAAAAAAAAAAAAAAAAAAAAAAAAAAAAAAAAAAAAAAAAAAAAAAAAAAAAAAAAAAAAAAAAAAAAAAAAAAAAAAAAAAAAAAAAAAAAAAAAAAAAAAAAAAAAAAAAAAAAAAAAAAAAAAAAAAAAAAAAAAAAAAAAAAAAAAAAAAAAAAAAAAAAAAAAAAAAAAAAAAAAAAAAAAAAAAAAAAAAAAAAAAAAAAAAAAAAAAAAAAAAAAAAAAAAAAAAAAAAAAAAAAAAAAAAAAAAAAAAAAAAAAAAAAAAAAAAAAAAAAAAAAAAAAAAAAAAAAAAAAAAAAAAAAAAAAAAAAAAAAAAAAAAAAAAAAAAAAAAAAAAAAAAAAAAAAAAAAAAAAAAAAAAAAAAAAAAAAAAAAAAAAAAAAAAAAAAAAAAAAAAAAAAAAAAAAAAAAAAAAAAAAAAAAAAAAAAAAAAAAAAAAAAAAAAAAAAAAAAAAAAAAAAAAAAAAAAAAAAAAAAAAAAAAAAAAAAAAAAAAAAAAAAAAAAAAAAAAAAAAAAAAAAAAAAAAAAAAAAAAAAAAAAAAAAAAAAAAAAAAAAAAAAAAAAAAAAAAAAAAAAAAAAAAAAAAAAAAAAAAAAAAAAAAAAAAAAAAAAAAAAAAAAAAAAAAAAAAAAAAAAAAAAAAAAAAAAAAAAAAAAAAAAAAAAAAAAAAAAAAAAAAAAAAAAAAAAAAAAAAAAAAAAAAAAAAAAAAAAAAAAAAAAAAAAAAAAAAAAAAAAAAAAAAAAAAAAAAAAAAAAAAAAAAAAAAAAAAAAAAAAAAAAAAAAAAAAAAAAAAAAAAAAAAAAAAAAAAAAAAAAAAAAAAAAAAAAAAAAAAAAAAAAAAAAAAAAAAAAAAAAAAAAAAAAAAAAAAAAAAAAAAAAAAAAAAAAAAAAAAAAAAAAAAAAAAAAAAAAAAAAAAAAAAAAAAAAAAAAAAAAAAAAAAAAAAAAAAAAAAAAAAAAAAAAAAAAAAAAAAAAAAAAAAAAAAAAAAAAAAAAAAAAAAAAAAAAAAAAAAAAAAAAAAAAAAAAAAAAAAAAAAAAAAAAAAAAAAAAAAAAAAAAAAAAAAAAAAAAAAAAAAAAAAAAAAAAAAAAAAAAAAAAAAAAAAAAAAAAAAAAAAAAAAAAAAAAAAAAAAAAAAAAAAAAAAAAAAAAAAAAAAAAAAAAAAAAAAAAAAAAAAAAAAAAAAAAAAAAAAAAAAAAAAAAAAAAAAAAAAAAAAAAAAAAAAAAAAAAAAAAAAAAAAAAAAAAAAAAAAAAAAAAAAAAAAAAAAAAAAAAAAAAAAAAAAAAAAAAAAAAAAAAAAAAAAAAAAAAAAAAAAAAAAAAAAAAAAAAAAAAAAAAAAAAAAAAAAAAAAAAAAAAAAAAAAAAAAAAAAAAAAAAAAAAAAAAAAAAAAAAAAAAAAAAAAAAAAAAAAAAAAAAAAAAAAAAAAAAAAAAAAAAAAAAAAAAAAAAAAAAAAAAAAAAAAAAAAAAAAAAAAAAAAAAAAAAAAAAAAAAAAAAAAAAAAAAAAAAAAAAAAAAAAAAAAAAAAAAAAAAAAAAAAAAAAAAAAAAAAAAAAAAAAAAAAAAAAAAAAAAAAAAAAAAAAAAAAAAAAAAAAAAAAAAAAAAAAAAAAAAAAAAAAAAAAAAAAAAAAAAAAAAAAAAAAAAAAAAAAAAAAAAAAAAAAAAAAAAAAAAAAAAAAAAAAAAAAAAAAAAAAAAAAAAAAAAAAAAAAAAAAAAAAAAAAAAAAAAAAAAAAAAAAAAAAAAAAAAAAAAAAAAAAAAAAAAAAAAAAAAAAAAAAAAAAAAAAAAAAAAAAAAAAAAAAAAAAAAAAAAAAAAAAAAAAAAAAAAAAAAAAAAAAAAAAAAAAAAAAAAAAAAAAAAAAAAAAAAAAAAAAAAAAAAAAAAAAAAAAAAAAAAAAAAAAAAAAAAAAAAAAAAAAAAAAAAAAAAAAAAAAAAAAAAAAAAAAAAAAAAAAAAAAAAAAAAAAAAAAAAAAAAAAAAAAAAAAAAAAAAAAAAAAAAAAAAAAAAAAAAAAAAAAAAAAAAAAAAAAAAAAAAAAAAAAAAAAAAAAAAAAAAAAAAAAAAAAAAAAAAAAAAAAAAAAAAAAAAAAAAAAAAAAAAAAAAAAAAAAAAAAAAAAAAAAAAAAAAAAAAAAAAAAAAAAAAAAAAAAAAAAAAAAAAAAAAAAAAAAAAAAAAAAAAAAAAAAAAAAAAAAAAAAAAAAAAAAAAAAAAAAAAAAAAAAAAAAAAAAAAAAAAAAAAAAAAAAAAAAAAAAAAAAAAAAAAAAAAAAAAAAAAAAAAAAAAAAAAAAAAAAAAAAAAAAAAAAAAAAAAAAAAAAAAAAAAAAAAAAAAAAAAAAAAAAAAAAAAAAAAAAAAAAAAAAAAAAAAAAAAAAAAAAAAAAAAAAAAAAAAAAAAAAAAAAAAAAAAAAAAAAAAAAAAAAAAAAAAAAAAAAAAAAAAAAAAAAAAAAAAAAAAAAAAAAAAAAAAAAAAAAAAAAAAAAAAAAAAAAAAAAAAAAAAAAAAAAAAAAAAAAAAAAAAAAAAAAAAAAAAAAAAAAAAAAAAAAAAAAAAAAAAAAAAAAAAAAAAAAAAAAAAAAAAAAAAAAAAAAAAAAAAAAAAAAAAAAAAAAAAAAAAAAAAAAAAAAAAAAAAAAAAAAAAAAAAAAAAAAAAAAAAAAAAAAAAAAAAAAAAAAAAAAAAAAAAAAAAAAAAAAAAAAAAAAAAAAAAAAAAAAAAAAAAAAAAAAAAAAAAAAAAAAAAAAAAAAAAAAAAAAAAAAAAAAAAAAAAAAAAAAAAAAAAAAAAAAAAAAAAAAAAAAAAAAAAAAAAAAAAAAAAAAAAAAAAAAAAAAAAAAAAAAAAAAAAAAAAAAAAAAAAAAAAAAAAAAAAAAAAAAAAAAAAAAAAAAAAAAAAAAAAAAAAAAAAAAAAAAAAAAAAAAAAAAAAAAAAAAAAAAAAAAAAAAAAAAAAAAAAAAAAAAAAAAAAAAAAAAAAAAAAAAAAAAAAAAAAAAAAAAAAAAAAAAAAAAAAAAAAAAAAAAAAAAAAAAAAAAAAAAAAAAAAAAAAAAAAAAAAAAAAAAAAAAAAAAAAAAAAAAAAAAAAAAAAAAAAAAAAAAAAAAAAAAAAAAAAAAAAAAAAAAAAAAAAAAAAAAAAAAAAAAAAAAAAAAAAAAAAAAAAAAAAAAAAAAAAAAAAAAAAAAAAAAAAAAAAAAAAAAAAAAAAAAAAAAAAAAAAAAAAAAAAAAAAAAAAAAAAAAAAAAAAAAAAAAAAAAAAAAAAAAAAAAAAAAAAAAAAAAAAAAAAAAAAAAAAAAAAAAAAAAAAAAAAAAAAAAAAAAAAAAAAAAAAAAAAAAAAAAAAAAAAAAAAAAAAAAAAAAAAAAAAAAAAAAAAAAAAAAAAAAAAAAAAAAAAAAAAAAAAAAAAAAAAAAAAAAAAAAAAAAAAAAAAAAAAAAAAAAAAAAAAAAAAAAAAAAAAAAAAAAAAAAAAAAAAAAAAAAAAAAAAAAAAAAAAAAAAAAAAAAAAAAAAAAAAAAAAAAAAAAAAAAAAAAAAAAAAAAAAAAAAAAAAAAAAAAAAAAAAAAAAAAAAAAAAAAAAAAAAAAAAAAAAAAAAAAAAAAAAAAAAAAAAAAAAAAAAAAAAAAAAAAAAAAAAAAAAAAAAAAAAAAAAAAAAAAAAAAAAAAAAAAAAAAAAAAAAAAAAAAAAAAAAAAAAAAAAAAAAAAAAAAAAAAAAAAAAAAAAAAAAAAAAAAAAAAAAAAAAAAAAAAAAAAAAAAAAAAAAAAAAAAAAAAAAAAAAAAAAAAAAAAAAAAAAAAAAAAAAAAAAAAAAAAAAAAAAAAAAAAAAAAAAAAAAAAAAAAAAAAAAAAAAAAAAAAAAAAAAAAAAAAAAAAAAAAAAAAAAAAAAAAAAAAAAAAAAAAAAAAAAAAAAAAAAAAAAAAAAAAAAAAAAAAAAAAAAAAAAAAAAAAAAAAAAAAAAAAAAAAAAAAAAAAAAAAAAAAAAAAAAAAAAAAAAAAAAAAAAAAAAAAAAAAAAAAAAAAAAAAAAAAAAAAAAAAAAAAAAAAAAAAAAAAAAAAAAAAAAAAAAAAAAAAAAAAAAAAAAAAAAAAAAAAAAAAAAAAAAAAAAAAAAAAAAAAAAAAAAAAAAAAAAAAAAAAAAAAAAAAAAAAAAAAAAAAAAAAAAAAAAAAAAAAAAAAAAAAAAAAAAAAAAAAAAAAAAAAAAAAAAAAAAAAAAAAAAAAAAAAAAAAAAAAAAAAAAAAAAAAAAAAAAAAAAAAAAAAAAAAAAAAAAAAAAAAAAAAAAAAAAAAAAAAAAAAPZYQEi4VOEm7Ok3Z4QjrHWPLorfmE8Nqc3YbW4vP1ZYiQ2ygvjAKOHVIzGtwj/gulhMTkBVjK3+kxpx6cBI7ZXKhzI=</c2pa:manifest></metadata>
  <rect x="45" y="0" width="10" height="5" fill="#dde3e8"/>
  <rect x="45" y="5" width="15" height="5" fill="#dde3e8"/>
  <rect x="45" y="10" width="15" height="5" fill="#dde3e8"/>
  <rect x="45" y="15" width="15" height="5" fill="#dde3e8"/>
  <rect x="95" y="15" width="15" height="5" fill="#dde3e8"/>
  <rect x="10" y="20" width="20" height="5" fill="#dde3e8"/>
  <rect x="45" y="20" width="15" height="5" fill="#dde3e8"/>
  <rect x="90" y="20" width="10" height="5" fill="#dde3e8"/>
  <rect x="0" y="25" width="5" height="5" fill="#e91e8c"/>
  <rect x="5" y="25" width="95" height="5" fill="#dde3e8"/>
  <rect x="0" y="30" width="100" height="5" fill="#8b95a0"/>
  <rect x="10" y="35" width="20" height="5" fill="#8b95a0"/>
  <rect x="45" y="35" width="15" height="5" fill="#8b95a0"/>
  <rect x="90" y="35" width="10" height="5" fill="#8b95a0"/>
  <rect x="45" y="40" width="15" height="5" fill="#8b95a0"/>
  <rect x="95" y="40" width="15" height="5" fill="#8b95a0"/>
  <rect x="45" y="45" width="15" height="5" fill="#8b95a0"/>
  <rect x="45" y="50" width="15" height="5" fill="#8b95a0"/>
  <rect x="45" y="55" width="10" height="5" fill="#8b95a0"/>
  <rect x="100" y="75" width="40" height="10" fill="#eef3f7"/>
  <rect x="140" y="75" width="20" height="10" fill="#b6c7d5"/>
  <rect x="70" y="85" width="80" height="10" fill="#3b7dc4"/>
  <rect x="150" y="85" width="40" height="10" fill="#1b3c69"/>
  <rect x="50" y="95" width="70" height="10" fill="#3b7dc4"/>
  <rect x="120" y="95" width="40" height="10" fill="#5aab5f"/>
  <rect x="160" y="95" width="50" height="10" fill="#2f6b3c"/>
  <rect x="40" y="105" width="60" height="10" fill="#3b7dc4"/>
  <rect x="100" y="105" width="70" height="10" fill="#5aab5f"/>
  <rect x="170" y="105" width="50" height="10" fill="#2f6b3c"/>
  <rect x="30" y="115" width="60" height="10" fill="#3b7dc4"/>
  <rect x="90" y="115" width="10" height="10" fill="#5aab5f"/>
  <rect x="100" y="115" width="10" height="10" fill="#3b7dc4"/>
  <rect x="110" y="115" width="20" height="10" fill="#5aab5f"/>
  <rect x="130" y="115" width="10" height="10" fill="#3b7dc4"/>
  <rect x="140" y="115" width="30" height="10" fill="#5aab5f"/>
  <rect x="170" y="115" width="60" height="10" fill="#2f6b3c"/>
  <rect x="20" y="125" width="60" height="10" fill="#3b7dc4"/>
  <rect x="80" y="125" width="20" height="10" fill="#5aab5f"/>
  <rect x="100" y="125" width="10" height="10" fill="#3b7dc4"/>
  <rect x="110" y="125" width="70" height="10" fill="#5aab5f"/>
  <rect x="180" y="125" width="60" height="10" fill="#2f6b3c"/>
  <rect x="10" y="135" width="90" height="10" fill="#3b7dc4"/>
  <rect x="100" y="135" width="40" height="10" fill="#5aab5f"/>
  <rect x="140" y="135" width="20" height="10" fill="#3b7dc4"/>
  <rect x="160" y="135" width="20" height="10" fill="#5aab5f"/>
  <rect x="180" y="135" width="70" height="10" fill="#2f6b3c"/>
  <rect x="10" y="145" width="70" height="10" fill="#3b7dc4"/>
  <rect x="80" y="145" width="30" height="10" fill="#5aab5f"/>
  <rect x="110" y="145" width="10" height="10" fill="#3b7dc4"/>
  <rect x="120" y="145" width="10" height="10" fill="#5aab5f"/>
  <rect x="130" y="145" width="10" height="10" fill="#3b7dc4"/>
  <rect x="140" y="145" width="40" height="10" fill="#5aab5f"/>
  <rect x="180" y="145" width="70" height="10" fill="#2f6b3c"/>
  <rect x="10" y="155" width="70" height="10" fill="#3b7dc4"/>
  <rect x="80" y="155" width="20" height="10" fill="#5aab5f"/>
  <rect x="100" y="155" width="20" height="10" fill="#3b7dc4"/>
  <rect x="120" y="155" width="10" height="10" fill="#5aab5f"/>
  <rect x="130" y="155" width="10" height="10" fill="#3b7dc4"/>
  <rect x="140" y="155" width="40" height="10" fill="#5aab5f"/>
  <rect x="180" y="155" width="70" height="10" fill="#2f6b3c"/>
  <rect x="0" y="165" width="140" height="10" fill="#3b7dc4"/>
  <rect x="140" y="165" width="40" height="10" fill="#5aab5f"/>
  <rect x="180" y="165" width="80" height="10" fill="#2f6b3c"/>
  <rect x="0" y="175" width="80" height="10" fill="#3b7dc4"/>
  <rect x="80" y="175" width="40" height="10" fill="#5aab5f"/>
  <rect x="120" y="175" width="10" height="10" fill="#3b7dc4"/>
  <rect x="130" y="175" width="40" height="10" fill="#5aab5f"/>
  <rect x="170" y="175" width="10" height="10" fill="#3b7dc4"/>
  <rect x="180" y="175" width="10" height="10" fill="#5aab5f"/>
  <rect x="190" y="175" width="70" height="10" fill="#2f6b3c"/>
  <rect x="0" y="185" width="70" height="10" fill="#3b7dc4"/>
  <rect x="70" y="185" width="80" height="10" fill="#5aab5f"/>
  <rect x="150" y="185" width="10" height="10" fill="#3b7dc4"/>
  <rect x="160" y="185" width="20" height="10" fill="#5aab5f"/>
  <rect x="180" y="185" width="10" height="10" fill="#3b7dc4"/>
  <rect x="190" y="185" width="70" height="10" fill="#2f6b3c"/>
  <rect x="0" y="195" width="70" height="10" fill="#3b7dc4"/>
  <rect x="70" y="195" width="90" height="10" fill="#5aab5f"/>
  <rect x="160" y="195" width="10" height="10" fill="#3b7dc4"/>
  <rect x="170" y="195" width="20" height="10" fill="#5aab5f"/>
  <rect x="190" y="195" width="10" height="10" fill="#1b3c69"/>
  <rect x="200" y="195" width="30" height="10" fill="#2f6b3c"/>
  <rect x="230" y="195" width="10" height="10" fill="#1b3c69"/>
  <rect x="240" y="195" width="20" height="10" fill="#2f6b3c"/>
  <rect x="0" y="205" width="70" height="10" fill="#3b7dc4"/>
  <rect x="70" y="205" width="100" height="10" fill="#5aab5f"/>
  <rect x="170" y="205" width="20" height="10" fill="#3b7dc4"/>
  <rect x="190" y="205" width="20" height="10" fill="#1b3c69"/>
  <rect x="210" y="205" width="10" height="10" fill="#2f6b3c"/>
  <rect x="220" y="205" width="20" height="10" fill="#1b3c69"/>
  <rect x="240" y="205" width="20" height="10" fill="#2f6b3c"/>
  <rect x="0" y="215" width="90" height="10" fill="#3b7dc4"/>
  <rect x="90" y="215" width="80" height="10" fill="#5aab5f"/>
  <rect x="170" y="215" width="20" height="10" fill="#3b7dc4"/>
  <rect x="190" y="215" width="70" height="10" fill="#1b3c69"/>
  <rect x="0" y="225" width="110" height="10" fill="#3b7dc4"/>
  <rect x="110" y="225" width="60" height="10" fill="#5aab5f"/>
  <rect x="170" y="225" width="20" height="10" fill="#3b7dc4"/>
  <rect x="190" y="225" width="70" height="10" fill="#1b3c69"/>
  <rect x="0" y="235" width="110" height="10" fill="#3b7dc4"/>
  <rect x="110" y="235" width="60" height="10" fill="#5aab5f"/>
  <rect x="170" y="235" width="10" height="10" fill="#3b7dc4"/>
  <rect x="180" y="235" width="80" height="10" fill="#1b3c69"/>
  <rect x="10" y="245" width="100" height="10" fill="#3b7dc4"/>
  <rect x="110" y="245" width="50" height="10" fill="#5aab5f"/>
  <rect x="160" y="245" width="10" height="10" fill="#3b7dc4"/>
  <rect x="170" y="245" width="10" height="10" fill="#5aab5f"/>
  <rect x="180" y="245" width="70" height="10" fill="#1b3c69"/>
  <rect x="10" y="255" width="100" height="10" fill="#3b7dc4"/>
  <rect x="110" y="255" width="50" height="10" fill="#5aab5f"/>
  <rect x="160" y="255" width="10" height="10" fill="#3b7dc4"/>
  <rect x="170" y="255" width="10" height="10" fill="#5aab5f"/>
  <rect x="180" y="255" width="70" height="10" fill="#1b3c69"/>
  <rect x="10" y="265" width="110" height="10" fill="#3b7dc4"/>
  <rect x="120" y="265" width="40" height="10" fill="#5aab5f"/>
  <rect x="160" y="265" width="20" height="10" fill="#3b7dc4"/>
  <rect x="180" y="265" width="70" height="10" fill="#1b3c69"/>
  <rect x="20" y="275" width="100" height="10" fill="#3b7dc4"/>
  <rect x="120" y="275" width="30" height="10" fill="#5aab5f"/>
  <rect x="150" y="275" width="30" height="10" fill="#3b7dc4"/>
  <rect x="180" y="275" width="60" height="10" fill="#1b3c69"/>
  <rect x="30" y="285" width="100" height="10" fill="#3b7dc4"/>
  <rect x="130" y="285" width="10" height="10" fill="#5aab5f"/>
  <rect x="140" y="285" width="30" height="10" fill="#3b7dc4"/>
  <rect x="170" y="285" width="60" height="10" fill="#1b3c69"/>
  <rect x="40" y="295" width="130" height="10" fill="#3b7dc4"/>
  <rect x="170" y="295" width="50" height="10" fill="#1b3c69"/>
  <rect x="50" y="305" width="110" height="10" fill="#3b7dc4"/>
  <rect x="160" y="305" width="50" height="10" fill="#1b3c69"/>
  <rect x="70" y="315" width="80" height="10" fill="#eef3f7"/>
  <rect x="150" y="315" width="40" height="10" fill="#b6c7d5"/>
  <rect x="100" y="325" width="40" height="10" fill="#eef3f7"/>
  <rect x="140" y="325" width="20" height="10" fill="#b6c7d5"/>
</svg>
